<?xml version="1.0" standalone="no"?>
<!DOCTYPE svg PUBLIC "-//W3C//DTD SVG 20010904//EN"
 "http://www.w3.org/TR/2001/REC-SVG-20010904/DTD/svg10.dtd">
<svg version="1.0" xmlns="http://www.w3.org/2000/svg"
 width="200.000000pt" height="200.000000pt" viewBox="0 0 200.000000 200.000000"
 preserveAspectRatio="xMidYMid meet">

<g transform="translate(0.000000,200.000000) scale(0.100000,-0.100000)"
fill="#000000" stroke="none">
<path d="M910 1610 c-39 -13 -68 -33 -102 -68 -127 -133 -91 -337 76 -425 58
-31 174 -31 232 0 121 64 176 191 139 319 -30 107 -149 195 -259 194 -17 -1
-56 -9 -86 -20z"/>
<path d="M862 960 c-162 -44 -304 -157 -374 -300 -53 -106 -65 -165 -45 -213
29 -67 25 -67 575 -67 l489 0 26 26 c14 14 29 39 32 55 14 61 -57 230 -135
321 -55 63 -176 143 -258 169 -97 30 -219 34 -310 9z"/>
</g>
</svg>
