<?xml version="1.0" standalone="no"?>
<!DOCTYPE svg PUBLIC "-//W3C//DTD SVG 20010904//EN"
 "http://www.w3.org/TR/2001/REC-SVG-20010904/DTD/svg10.dtd">
<svg version="1.0" xmlns="http://www.w3.org/2000/svg"
 width="512.000000pt" height="512.000000pt" viewBox="0 0 512.000000 512.000000"
 preserveAspectRatio="xMidYMid meet">

<g transform="translate(0.000000,512.000000) scale(0.100000,-0.100000)"
fill="#000000" stroke="none">
<path d="M1150 4671 c-30 -9 -73 -29 -95 -43 -53 -33 -128 -115 -155 -168 -51
-100 -50 -48 -50 -1900 0 -1852 -1 -1800 50 -1900 28 -55 100 -131 158 -169
102 -64 19 -61 1502 -61 1470 0 1395 -3 1496 56 53 31 136 119 164 173 50 99
50 89 50 1381 0 741 -4 1228 -10 1265 -5 33 -24 89 -41 125 -29 59 -87 120
-593 626 -523 523 -566 564 -631 595 l-70 34 -860 2 c-800 2 -864 1 -915 -16z
m2210 -886 l585 -585 -588 0 -587 0 0 585 c0 322 1 585 3 585 1 0 265 -263
587 -585z m-88 -1235 c85 -24 137 -102 138 -206 0 -82 -30 -139 -95 -179 l-48
-30 -707 0 -707 0 -48 30 c-65 40 -95 97 -95 179 0 69 23 128 63 164 55 51 53
51 782 52 438 0 693 -4 717 -10z m43 -875 c65 -40 95 -97 95 -179 -1 -104 -53
-182 -138 -206 -51 -14 -1373 -14 -1424 0 -85 24 -137 102 -138 204 0 104 58
184 152 206 18 5 342 8 719 7 l686 -2 48 -30z"/>
</g>
</svg>
