<?xml version="1.0" standalone="no"?>
<!DOCTYPE svg PUBLIC "-//W3C//DTD SVG 20010904//EN"
 "http://www.w3.org/TR/2001/REC-SVG-20010904/DTD/svg10.dtd">
<svg version="1.0" xmlns="http://www.w3.org/2000/svg"
 width="225.000000pt" height="225.000000pt" viewBox="0 0 225.000000 225.000000"
 preserveAspectRatio="xMidYMid meet">

<g transform="translate(0.000000,225.000000) scale(0.100000,-0.100000)"
fill="#000000" stroke="none">
<path d="M902 2043 c-6 -10 -18 -75 -27 -144 l-18 -126 -61 -31 c-33 -18 -70
-38 -81 -46 -18 -13 -31 -10 -140 35 -68 29 -129 48 -140 45 -13 -4 -55 -66
-123 -185 -84 -146 -101 -184 -93 -199 5 -10 54 -53 108 -95 l99 -76 -1 -96 0
-95 -101 -80 c-56 -43 -104 -87 -108 -96 -9 -24 192 -373 219 -380 11 -2 72
17 140 45 l120 50 30 -20 c17 -11 53 -32 81 -46 l51 -26 18 -126 c9 -69 21
-134 27 -143 8 -16 29 -18 223 -18 194 0 215 2 223 17 6 10 18 75 27 144 l18
126 51 26 c28 14 65 35 81 46 l30 20 120 -50 c68 -28 129 -47 140 -45 13 4 55
66 123 185 84 147 101 183 93 199 -5 10 -54 53 -108 95 l-99 77 1 95 0 95 101
80 c56 43 104 87 108 96 8 22 -191 372 -217 380 -10 3 -50 -8 -90 -24 -178
-75 -173 -73 -199 -53 -13 10 -47 31 -76 46 -29 15 -54 30 -56 34 -2 3 -12 60
-21 125 -9 66 -21 128 -26 138 -9 17 -27 18 -224 18 -194 0 -215 -2 -223 -17z
m376 -628 c60 -33 110 -84 144 -147 20 -37 23 -58 23 -143 0 -92 -2 -104 -29
-153 -34 -60 -85 -111 -148 -144 -37 -20 -58 -23 -143 -23 -85 0 -106 3 -143
23 -63 33 -114 84 -148 144 -27 49 -29 61 -29 153 0 85 3 106 23 142 68 129
167 185 312 180 71 -2 94 -8 138 -32z"/>
</g>
</svg>
