<svg id="svg" version="1.1" xmlns="http://www.w3.org/2000/svg" xmlns:xlink="http://www.w3.org/1999/xlink" width="400" height="400" viewBox="0, 0, 400,400"><g id="svgg"><path id="path0" d="M63.379 28.331 C 35.827 31.021,19.799 59.680,32.789 83.030 C 47.835 110.078,88.679 109.205,102.347 81.543 C 115.269 55.391,93.312 25.408,63.379 28.331 M130.469 28.297 C 128.333 28.999,126.343 30.795,125.568 32.720 L 125.098 33.887 125.046 80.515 L 124.994 127.143 79.636 127.194 L 34.277 127.246 33.149 127.673 C 26.843 130.056,26.505 138.364,32.593 141.355 L 33.691 141.895 79.346 141.945 L 125.000 141.996 125.000 200.975 L 125.000 259.954 79.541 260.006 L 34.082 260.059 33.015 260.511 C 26.737 263.177,26.610 271.756,32.813 274.271 L 33.887 274.707 79.443 274.757 L 125.000 274.808 125.000 319.882 C 125.000 359.255,125.037 365.099,125.292 366.078 C 127.277 373.698,137.567 373.698,139.552 366.078 C 139.807 365.099,139.844 359.255,139.844 319.881 L 139.844 274.805 198.828 274.805 L 257.813 274.805 257.813 319.691 C 257.813 351.237,257.876 364.919,258.025 365.728 C 259.517 373.800,270.925 373.725,272.459 365.633 C 272.588 364.955,272.656 349.041,272.656 319.701 L 272.656 274.808 319.385 274.757 L 366.113 274.707 367.383 274.104 C 374.106 270.912,372.579 261.215,365.184 260.145 C 364.487 260.044,344.414 259.967,318.311 259.965 L 272.656 259.961 272.656 200.979 L 272.656 141.996 318.701 141.945 L 364.746 141.895 366.033 141.265 C 372.658 138.023,371.177 128.509,363.867 127.352 C 363.024 127.219,347.484 127.151,317.629 127.150 L 272.661 127.148 272.610 80.518 L 272.559 33.887 272.103 32.757 C 269.634 26.642,260.834 26.647,258.363 32.764 L 257.910 33.887 257.858 80.518 L 257.806 127.148 198.827 127.148 L 139.848 127.148 139.797 80.518 L 139.746 33.887 139.290 32.757 C 137.955 29.450,133.624 27.261,130.469 28.297 M196.875 28.248 C 164.285 31.335,149.385 68.090,171.481 90.889 C 196.420 116.622,240.967 98.164,238.844 62.977 C 237.616 42.641,217.825 26.264,196.875 28.248 M306.371 35.727 C 303.025 36.833,301.012 39.714,301.209 43.117 C 301.378 46.032,301.193 45.800,311.630 56.253 L 320.895 65.533 312.025 74.401 C 305.288 81.137,303.036 83.507,302.655 84.261 C 299.570 90.377,305.419 96.834,311.914 94.482 C 312.904 94.124,313.705 93.378,322.119 84.991 L 331.250 75.888 340.576 85.200 C 347.746 92.358,350.106 94.601,350.781 94.897 C 355.933 97.156,361.230 93.802,361.230 88.281 C 361.230 85.051,361.571 85.495,350.967 74.893 C 345.924 69.850,341.797 65.638,341.797 65.533 C 341.797 65.428,345.873 61.252,350.855 56.255 C 361.164 45.913,360.807 46.381,360.814 43.229 C 360.826 37.632,354.523 34.096,349.760 37.026 C 349.301 37.309,344.950 41.507,340.090 46.355 L 331.254 55.170 321.730 45.677 C 311.169 35.149,311.759 35.619,308.887 35.435 C 307.870 35.370,307.225 35.444,306.371 35.727 M70.814 43.178 C 86.797 45.401,95.975 61.502,89.063 75.194 C 80.447 92.263,54.197 92.384,45.423 75.395 C 36.974 59.036,51.580 40.503,70.814 43.178 M204.004 43.259 C 218.563 45.648,227.685 59.528,223.112 72.334 C 215.649 93.232,184.564 93.348,176.958 72.506 C 171.191 56.703,186.308 40.355,204.004 43.259 M257.813 200.977 L 257.813 259.961 198.828 259.961 L 139.844 259.961 139.844 200.977 L 139.844 141.992 198.828 141.992 L 257.813 141.992 257.813 200.977 M326.172 162.987 C 300.452 166.116,285.087 192.631,295.806 215.386 C 308.555 242.449,347.726 244.987,364.311 219.824 C 381.805 193.281,358.812 159.016,326.172 162.987 M175.195 170.094 C 171.872 171.184,170.020 173.744,170.020 177.246 C 170.020 180.521,169.661 180.051,180.345 190.772 L 189.543 200.002 180.738 208.839 C 171.703 217.907,171.249 218.424,170.784 220.171 C 169.288 225.791,174.209 230.712,179.829 229.216 C 181.576 228.751,182.093 228.297,191.161 219.262 L 199.998 210.457 209.228 219.650 C 219.891 230.271,219.475 229.951,222.656 229.970 C 228.078 230.001,231.698 224.451,229.401 219.629 C 228.917 218.613,227.615 217.225,219.651 209.229 L 210.459 200.000 219.362 191.065 C 229.453 180.938,229.301 181.131,229.455 178.212 C 229.694 173.642,226.302 170.280,221.718 170.546 C 218.871 170.711,219.018 170.594,208.935 180.638 L 199.998 189.539 190.770 180.337 C 180.194 169.789,180.563 170.078,177.539 169.989 C 176.519 169.959,175.464 170.006,175.195 170.094 M336.035 177.825 C 354.841 181.755,361.946 202.390,348.980 215.425 C 337.497 226.971,316.993 224.094,309.563 209.895 C 302.185 195.797,311.472 179.986,328.613 177.463 C 329.839 177.283,334.536 177.512,336.035 177.825 M195.671 297.261 C 163.108 301.382,149.461 338.598,172.390 360.747 C 197.707 385.203,240.845 366.500,238.849 331.934 C 237.648 311.124,217.019 294.559,195.671 297.261 M42.051 304.661 C 37.850 306.112,35.923 310.702,37.792 314.803 C 38.231 315.768,39.533 317.153,47.470 325.100 C 52.514 330.151,56.641 334.368,56.641 334.473 C 56.641 334.577,52.610 338.707,47.684 343.650 C 37.362 354.006,37.793 353.440,37.793 356.641 C 37.793 360.951,40.731 363.965,44.922 363.953 C 48.134 363.945,47.636 364.324,58.057 353.936 L 67.188 344.834 76.514 354.132 C 81.643 359.246,86.045 363.535,86.295 363.663 C 91.519 366.350,97.593 362.504,97.223 356.743 C 97.045 353.972,97.153 354.106,86.905 343.845 C 81.861 338.795,77.734 334.577,77.734 334.473 C 77.734 334.368,81.729 330.283,86.612 325.393 C 96.927 315.065,96.582 315.521,96.582 312.207 C 96.582 307.895,93.710 304.983,89.453 304.981 C 86.231 304.980,86.632 304.674,76.358 314.951 C 71.476 319.833,67.352 323.828,67.193 323.828 C 67.034 323.828,62.683 319.621,57.524 314.478 C 48.185 305.169,48.139 305.127,46.886 304.713 C 45.332 304.199,43.444 304.179,42.051 304.661 M204.199 312.203 C 223.059 315.285,230.759 336.763,217.701 349.866 C 206.127 361.479,185.253 358.394,178.052 344.007 C 169.794 327.508,184.962 309.059,204.199 312.203 " stroke="none" fill="#fbfbfb" fill-rule="evenodd"></path><path id="path1" d="M0.000 200.000 L 0.000 400.000 200.000 400.000 L 400.000 400.000 400.000 200.000 L 400.000 0.000 200.000 0.000 L 0.000 0.000 0.000 200.000 M72.568 28.425 C 97.448 31.456,112.842 56.814,103.510 79.395 C 92.359 106.378,54.116 111.346,36.013 88.163 C 15.136 61.427,37.915 24.202,72.568 28.425 M135.401 28.566 C 136.864 29.236,138.459 30.761,139.175 32.174 L 139.746 33.301 139.797 80.225 L 139.847 127.148 198.729 127.148 L 257.611 127.148 257.663 80.615 L 257.715 34.082 258.182 32.832 C 260.491 26.655,269.234 26.350,272.102 32.347 L 272.559 33.301 272.609 80.223 L 272.659 127.144 318.800 127.195 L 364.941 127.246 366.099 127.832 C 372.549 131.098,371.487 140.421,364.497 141.902 C 363.382 142.139,356.339 142.181,317.920 142.184 L 272.656 142.188 272.656 201.072 L 272.656 259.957 319.482 260.008 L 366.309 260.059 367.474 260.631 C 374.130 263.899,372.843 273.620,365.598 274.795 C 364.769 274.930,349.090 274.998,318.507 274.999 L 272.659 275.000 272.609 320.752 L 272.559 366.504 272.019 367.639 C 269.374 373.199,261.217 373.278,258.537 367.771 C 257.618 365.882,257.625 366.261,257.621 319.482 L 257.617 275.000 198.732 275.000 L 139.847 275.000 139.797 320.752 L 139.746 366.504 139.172 367.673 C 138.856 368.316,138.196 369.245,137.705 369.736 C 134.115 373.325,127.926 372.264,125.672 367.673 L 125.098 366.504 125.047 320.752 L 124.997 275.000 80.210 275.000 C 48.805 275.000,35.077 274.937,34.264 274.788 C 27.073 273.470,25.824 263.910,32.422 260.680 L 33.691 260.059 79.346 260.008 L 125.000 259.957 125.000 201.075 L 125.000 142.193 79.541 142.139 C 40.684 142.093,33.969 142.044,33.301 141.805 C 26.843 139.494,26.253 131.069,32.324 127.865 L 33.496 127.246 79.199 127.148 L 124.902 127.051 125.000 80.273 C 125.073 45.381,125.155 33.338,125.325 32.872 C 126.757 28.943,131.656 26.849,135.401 28.566 M205.371 28.424 C 231.258 31.589,246.624 58.833,235.330 81.541 C 223.491 105.342,190.872 110.417,171.867 91.414 C 146.245 65.795,168.519 23.919,205.371 28.424 M311.883 36.018 C 312.698 36.432,314.931 38.552,322.117 45.734 L 331.309 54.920 340.118 46.132 C 350.356 35.918,350.482 35.821,353.613 35.864 C 357.900 35.922,360.826 38.919,360.835 43.262 C 360.843 46.695,361.217 46.196,350.823 56.609 C 343.185 64.263,342.013 65.513,342.230 65.777 C 342.368 65.945,346.449 70.059,351.300 74.919 C 361.608 85.246,361.426 85.006,361.426 88.281 C 361.426 92.669,358.450 95.605,354.004 95.605 C 350.691 95.605,351.246 96.029,340.506 85.314 L 331.304 76.134 322.939 84.502 C 313.313 94.131,313.221 94.214,311.552 94.732 C 305.031 96.755,299.606 90.479,302.468 84.222 C 302.677 83.765,306.119 80.163,311.749 74.508 L 320.697 65.520 311.709 56.539 C 302.244 47.082,301.767 46.535,301.254 44.530 C 299.700 38.464,306.297 33.181,311.883 36.018 M65.039 43.088 C 52.202 44.658,43.101 53.963,43.092 65.527 C 43.079 81.235,59.961 92.058,75.775 86.480 C 91.566 80.911,96.336 62.200,84.993 50.325 C 80.502 45.623,71.375 42.313,65.039 43.088 M197.852 43.088 C 177.513 45.576,168.752 67.205,182.508 80.970 C 197.193 95.665,224.080 85.677,224.080 65.527 C 224.080 52.577,211.095 41.468,197.852 43.088 M139.844 201.074 L 139.844 259.961 198.730 259.961 L 257.617 259.961 257.617 201.074 L 257.617 142.188 198.730 142.188 L 139.844 142.188 139.844 201.074 M335.449 162.700 C 352.621 164.618,366.236 176.546,369.636 192.649 C 375.803 221.857,345.144 246.042,316.374 234.666 C 311.338 232.674,304.881 228.305,302.051 224.975 C 295.293 217.021,292.188 209.157,292.188 200.000 C 292.188 177.843,312.699 160.158,335.449 162.700 M180.371 170.402 C 181.395 170.882,182.709 172.114,190.770 180.148 L 199.998 189.344 208.935 180.453 C 219.338 170.104,218.934 170.410,222.168 170.410 C 226.601 170.410,229.597 173.407,229.584 177.829 C 229.575 181.103,229.899 180.676,219.552 191.065 L 210.652 200.002 219.770 209.132 C 229.683 219.058,229.623 218.985,230.126 221.685 C 231.063 226.726,225.818 231.422,220.885 229.959 C 218.776 229.334,218.418 229.023,209.132 219.760 L 200.002 210.652 191.065 219.550 C 180.736 229.835,181.059 229.590,177.832 229.590 C 173.560 229.590,170.410 226.444,170.410 222.178 C 170.410 218.939,170.160 219.269,180.451 208.934 L 189.350 199.996 180.347 190.965 C 170.766 181.353,170.698 181.277,170.109 179.567 C 168.009 173.462,174.512 167.654,180.371 170.402 M327.832 177.746 C 311.271 179.994,302.246 196.841,310.180 210.696 C 319.664 227.259,345.880 225.929,353.562 208.496 C 360.602 192.521,346.159 175.259,327.832 177.746 M205.957 297.368 C 237.243 301.965,250.108 338.858,228.001 360.589 C 205.704 382.507,166.652 370.797,161.422 340.625 C 157.632 318.754,173.503 299.381,197.168 296.991 C 198.698 296.837,203.843 297.057,205.957 297.368 M47.591 304.869 C 48.678 305.378,49.802 306.431,58.018 314.642 L 67.227 323.845 76.130 314.946 C 83.123 307.957,85.250 305.942,86.043 305.554 C 91.158 303.051,96.762 306.526,96.774 312.207 C 96.780 315.476,97.106 315.046,86.757 325.427 C 78.668 333.542,77.887 334.382,78.140 334.689 C 78.293 334.875,82.387 339.004,87.238 343.864 C 97.550 354.196,97.367 353.954,97.358 357.227 C 97.347 361.557,94.358 364.547,90.039 364.549 C 86.602 364.552,87.166 364.978,76.415 354.241 L 67.186 345.023 58.349 353.831 C 48.952 363.197,48.911 363.234,47.280 363.769 C 42.320 365.396,37.237 361.481,37.539 356.265 C 37.708 353.354,37.655 353.421,47.739 343.335 L 56.621 334.452 47.543 325.380 C 38.400 316.245,37.668 315.412,37.184 313.594 C 35.541 307.423,41.812 302.165,47.591 304.869 M197.559 312.032 C 188.264 313.395,181.650 317.881,178.051 325.264 C 170.891 339.950,182.518 356.817,199.829 356.857 C 220.727 356.906,231.733 334.179,217.947 319.442 C 213.278 314.450,204.019 311.085,197.559 312.032 " stroke="none" fill="#040404" fill-rule="evenodd"></path><path id="path2" d="M257.713 81.250 C 257.713 106.548,257.736 116.897,257.764 104.248 C 257.791 91.599,257.791 70.901,257.764 58.252 C 257.736 45.603,257.713 55.952,257.713 81.250 M353.174 35.877 C 353.362 35.926,353.669 35.926,353.857 35.877 C 354.045 35.828,353.892 35.788,353.516 35.788 C 353.140 35.788,352.986 35.828,353.174 35.877 M91.284 65.527 C 91.284 66.709,91.317 67.167,91.355 66.546 C 91.394 65.924,91.394 64.957,91.355 64.397 C 91.315 63.837,91.284 64.346,91.284 65.527 M301.616 87.695 C 301.616 88.179,301.654 88.376,301.700 88.135 C 301.747 87.893,301.747 87.498,301.700 87.256 C 301.654 87.014,301.616 87.212,301.616 87.695 M66.553 103.071 C 66.902 103.114,67.473 103.114,67.822 103.071 C 68.171 103.028,67.886 102.992,67.188 102.992 C 66.489 102.992,66.204 103.028,66.553 103.071 M199.361 103.071 C 199.708 103.114,200.323 103.115,200.728 103.072 C 201.133 103.030,200.850 102.995,200.098 102.994 C 199.346 102.993,199.014 103.028,199.361 103.071 M370.368 134.668 C 370.370 135.205,370.408 135.402,370.453 135.105 C 370.498 134.808,370.496 134.368,370.450 134.128 C 370.404 133.888,370.367 134.131,370.368 134.668 M57.584 142.139 C 69.973 142.166,90.188 142.166,102.506 142.139 C 114.824 142.111,104.688 142.088,79.980 142.088 C 55.273 142.088,45.195 142.111,57.584 142.139 M198.779 142.139 L 257.617 142.188 257.666 201.075 L 257.716 259.961 257.715 201.025 L 257.715 142.090 198.828 142.089 L 139.941 142.089 198.779 142.139 M295.459 142.139 C 307.947 142.166,328.381 142.166,340.869 142.139 C 353.357 142.111,343.140 142.088,318.164 142.088 C 293.188 142.088,282.971 142.111,295.459 142.139 M328.664 162.638 C 328.907 162.685,329.259 162.683,329.446 162.634 C 329.632 162.585,329.434 162.547,329.004 162.549 C 328.574 162.551,328.421 162.591,328.664 162.638 M333.352 162.638 C 333.595 162.685,333.946 162.683,334.133 162.634 C 334.320 162.585,334.121 162.547,333.691 162.549 C 333.262 162.551,333.109 162.591,333.352 162.638 M190.869 180.371 L 200.000 189.550 208.740 180.762 L 217.480 171.973 208.740 180.664 L 200.000 189.354 190.869 180.273 L 181.738 171.192 190.869 180.371 M303.020 174.072 L 302.051 175.098 303.076 174.128 C 303.640 173.595,304.102 173.134,304.102 173.103 C 304.102 172.957,303.921 173.119,303.020 174.072 M180.273 190.869 L 189.354 200.000 180.566 208.838 L 171.778 217.676 180.664 208.838 L 189.550 200.000 180.371 190.869 L 171.192 181.738 180.273 190.869 M219.238 191.211 L 210.450 200.001 219.629 209.131 L 228.808 218.262 219.727 209.131 L 210.646 200.000 219.434 191.211 C 224.267 186.377,228.177 182.422,228.123 182.422 C 228.070 182.422,224.071 186.377,219.238 191.211 M313.562 184.619 L 312.988 185.254 313.623 184.680 C 314.215 184.146,314.348 183.984,314.197 183.984 C 314.163 183.984,313.877 184.270,313.562 184.619 M370.385 200.000 C 370.385 201.128,370.417 201.589,370.456 201.025 C 370.496 200.461,370.496 199.539,370.456 198.975 C 370.417 198.411,370.385 198.872,370.385 200.000 M355.319 201.953 C 355.319 202.329,355.359 202.483,355.408 202.295 C 355.457 202.107,355.457 201.799,355.408 201.611 C 355.359 201.423,355.319 201.577,355.319 201.953 M191.112 219.385 L 182.324 228.223 191.162 219.434 L 200.000 210.646 209.131 219.727 L 218.262 228.809 209.180 219.678 C 204.186 214.656,200.055 210.547,200.000 210.547 C 199.945 210.547,195.946 214.524,191.112 219.385 M348.232 215.967 L 347.559 216.699 348.291 216.026 C 348.973 215.400,349.113 215.234,348.964 215.234 C 348.931 215.234,348.602 215.564,348.232 215.967 M303.027 225.977 C 303.556 226.514,304.033 226.953,304.087 226.953 C 304.141 226.953,303.752 226.514,303.223 225.977 C 302.694 225.439,302.217 225.000,302.163 225.000 C 302.109 225.000,302.498 225.439,303.027 225.977 M172.461 227.441 C 172.825 227.817,173.167 228.125,173.221 228.125 C 173.275 228.125,173.021 227.817,172.656 227.441 C 172.292 227.065,171.950 226.758,171.896 226.758 C 171.842 226.758,172.097 227.065,172.461 227.441 M328.174 237.439 C 328.362 237.488,328.669 237.488,328.857 237.439 C 329.045 237.390,328.892 237.350,328.516 237.350 C 328.140 237.350,327.986 237.390,328.174 237.439 M333.838 237.439 C 334.026 237.488,334.333 237.488,334.521 237.439 C 334.709 237.390,334.556 237.350,334.180 237.350 C 333.804 237.350,333.650 237.390,333.838 237.439 M57.486 274.951 C 69.929 274.979,90.232 274.979,102.604 274.951 C 114.975 274.923,104.795 274.901,79.980 274.901 C 55.166 274.901,45.044 274.923,57.486 274.951 M198.779 274.951 L 257.616 275.001 257.666 319.727 L 257.716 364.453 257.715 319.678 L 257.715 274.902 198.828 274.902 L 139.941 274.901 198.779 274.951 M295.654 274.951 C 308.357 274.979,329.143 274.979,341.846 274.951 C 354.548 274.923,344.155 274.901,318.750 274.901 C 293.345 274.901,282.952 274.923,295.654 274.951 M198.193 297.013 C 198.435 297.059,198.831 297.059,199.072 297.013 C 199.314 296.966,199.116 296.928,198.633 296.928 C 198.149 296.928,197.952 296.966,198.193 297.013 M200.928 297.013 C 201.169 297.059,201.565 297.059,201.807 297.013 C 202.048 296.966,201.851 296.928,201.367 296.928 C 200.884 296.928,200.686 296.966,200.928 297.013 M94.141 306.506 C 94.141 306.540,94.426 306.826,94.775 307.141 L 95.410 307.715 94.837 307.080 C 94.302 306.488,94.141 306.356,94.141 306.506 M171.576 308.643 L 170.410 309.863 171.631 308.698 C 172.302 308.056,172.852 307.507,172.852 307.477 C 172.852 307.333,172.659 307.509,171.576 308.643 M228.125 308.496 C 228.708 309.087,229.230 309.570,229.284 309.570 C 229.337 309.570,228.904 309.087,228.320 308.496 C 227.737 307.905,227.215 307.422,227.162 307.422 C 227.108 307.422,227.542 307.905,228.125 308.496 M160.788 334.570 C 160.788 334.946,160.828 335.100,160.877 334.912 C 160.926 334.724,160.926 334.417,160.877 334.229 C 160.828 334.041,160.788 334.194,160.788 334.570 M198.782 356.974 C 199.025 357.021,199.376 357.019,199.563 356.970 C 199.750 356.921,199.551 356.883,199.121 356.885 C 198.691 356.887,198.539 356.927,198.782 356.974 M126.563 369.202 C 126.563 369.235,126.848 369.521,127.197 369.837 L 127.832 370.410 127.258 369.775 C 126.724 369.184,126.563 369.051,126.563 369.202 M137.585 369.775 L 137.012 370.410 137.646 369.837 C 137.996 369.521,138.281 369.235,138.281 369.202 C 138.281 369.051,138.120 369.184,137.585 369.775 M259.375 369.202 C 259.375 369.235,259.661 369.521,260.010 369.837 L 260.645 370.410 260.071 369.775 C 259.536 369.184,259.375 369.051,259.375 369.202 M270.398 369.775 L 269.824 370.410 270.459 369.837 C 271.051 369.302,271.184 369.141,271.033 369.141 C 270.999 369.141,270.713 369.426,270.398 369.775 " stroke="none" fill="#555555" fill-rule="evenodd"></path><path id="path3" d="M339.843 46.436 L 331.348 54.980 339.893 46.485 C 344.592 41.813,348.438 37.968,348.438 37.940 C 348.438 37.803,347.739 38.493,339.843 46.436 M311.816 56.641 C 316.649 61.475,320.648 65.430,320.701 65.430 C 320.755 65.430,316.845 61.475,312.012 56.641 C 307.179 51.807,303.180 47.852,303.127 47.852 C 303.073 47.852,306.983 51.807,311.816 56.641 M312.011 74.268 L 303.418 82.910 312.061 74.317 C 316.814 69.591,320.703 65.702,320.703 65.675 C 320.703 65.537,319.998 66.235,312.011 74.268 M332.324 77.148 C 332.853 77.686,333.330 78.125,333.384 78.125 C 333.437 78.125,333.049 77.686,332.520 77.148 C 331.990 76.611,331.514 76.172,331.460 76.172 C 331.406 76.172,331.795 76.611,332.324 77.148 M329.932 162.635 C 330.120 162.684,330.427 162.684,330.615 162.635 C 330.803 162.586,330.649 162.545,330.273 162.545 C 329.897 162.545,329.744 162.586,329.932 162.635 M331.787 162.638 C 332.029 162.684,332.424 162.684,332.666 162.638 C 332.908 162.591,332.710 162.553,332.227 162.553 C 331.743 162.553,331.545 162.591,331.787 162.638 M330.908 177.478 C 331.096 177.528,331.404 177.528,331.592 177.478 C 331.780 177.429,331.626 177.389,331.250 177.389 C 330.874 177.389,330.720 177.429,330.908 177.478 M313.477 215.332 C 313.841 215.708,314.183 216.016,314.237 216.016 C 314.290 216.016,314.036 215.708,313.672 215.332 C 313.307 214.956,312.965 214.648,312.912 214.648 C 312.858 214.648,313.112 214.956,313.477 215.332 M170.358 222.266 C 170.358 222.642,170.398 222.795,170.447 222.607 C 170.496 222.419,170.496 222.112,170.447 221.924 C 170.398 221.736,170.358 221.890,170.358 222.266 M330.908 222.596 C 331.096 222.645,331.404 222.645,331.592 222.596 C 331.780 222.546,331.626 222.506,331.250 222.506 C 330.874 222.506,330.720 222.546,330.908 222.596 M332.666 237.439 C 332.854 237.488,333.162 237.488,333.350 237.439 C 333.538 237.390,333.384 237.350,333.008 237.350 C 332.632 237.350,332.478 237.390,332.666 237.439 M199.658 297.010 C 199.846 297.059,200.154 297.059,200.342 297.010 C 200.530 296.961,200.376 296.920,200.000 296.920 C 199.624 296.920,199.470 296.961,199.658 297.010 M39.640 317.432 C 40.119 317.942,40.537 318.359,40.568 318.359 C 40.715 318.359,40.560 318.184,39.697 317.375 L 38.770 316.504 39.640 317.432 " stroke="none" fill="#7c7c7c" fill-rule="evenodd"></path><path id="path4" d="M132.080 28.064 C 132.268 28.113,132.576 28.113,132.764 28.064 C 132.952 28.015,132.798 27.975,132.422 27.975 C 132.046 27.975,131.892 28.015,132.080 28.064 M270.313 30.176 C 270.677 30.552,271.019 30.859,271.073 30.859 C 271.126 30.859,270.872 30.552,270.508 30.176 C 270.143 29.800,269.801 29.492,269.748 29.492 C 269.694 29.492,269.948 29.800,270.313 30.176 M127.038 30.322 L 126.465 30.957 127.100 30.383 C 127.449 30.068,127.734 29.782,127.734 29.749 C 127.734 29.598,127.573 29.731,127.038 30.322 M137.109 29.749 C 137.109 29.782,137.395 30.068,137.744 30.383 L 138.379 30.957 137.805 30.322 C 137.271 29.731,137.109 29.598,137.109 29.749 M259.851 30.322 L 259.277 30.957 259.912 30.383 C 260.504 29.849,260.637 29.688,260.486 29.688 C 260.452 29.688,260.167 29.973,259.851 30.322 M322.111 45.989 C 327.129 51.033,331.260 55.119,331.291 55.070 C 331.322 55.021,327.217 50.894,322.168 45.899 L 312.988 36.818 322.111 45.989 M39.063 39.551 C 38.262 40.356,37.651 41.016,37.705 41.016 C 37.759 41.016,38.458 40.356,39.258 39.551 C 40.058 38.745,40.669 38.086,40.615 38.086 C 40.562 38.086,39.863 38.745,39.063 39.551 M171.772 39.697 L 170.410 41.113 171.826 39.751 C 172.605 39.002,173.242 38.365,173.242 38.335 C 173.242 38.192,173.037 38.382,171.772 39.697 M228.027 39.648 C 228.774 40.400,229.428 41.016,229.482 41.016 C 229.535 41.016,228.969 40.400,228.223 39.648 C 227.476 38.896,226.822 38.281,226.768 38.281 C 226.715 38.281,227.281 38.896,228.027 39.648 M350.487 56.689 L 341.699 65.527 350.537 56.739 C 358.752 48.571,359.463 47.852,359.325 47.852 C 359.298 47.852,355.321 51.829,350.487 56.689 M84.766 50.098 C 85.349 50.688,85.870 51.172,85.924 51.172 C 85.978 51.172,85.544 50.688,84.961 50.098 C 84.377 49.507,83.856 49.023,83.802 49.023 C 83.749 49.023,84.182 49.507,84.766 50.098 M182.220 50.146 L 181.152 51.270 182.275 50.202 C 182.893 49.615,183.398 49.109,183.398 49.079 C 183.398 48.934,183.212 49.103,182.220 50.146 M217.578 50.098 C 218.162 50.688,218.683 51.172,218.737 51.172 C 218.790 51.172,218.357 50.688,217.773 50.098 C 217.190 49.507,216.669 49.023,216.615 49.023 C 216.561 49.023,216.995 49.507,217.578 50.098 M160.996 63.867 C 160.996 64.458,161.033 64.700,161.077 64.404 C 161.122 64.109,161.122 63.625,161.077 63.330 C 161.033 63.035,160.996 63.276,160.996 63.867 M106.117 64.258 C 106.117 64.956,106.153 65.242,106.196 64.893 C 106.239 64.543,106.239 63.972,106.196 63.623 C 106.153 63.274,106.117 63.560,106.117 64.258 M238.926 64.063 C 238.926 64.653,238.962 64.895,239.007 64.600 C 239.052 64.304,239.052 63.821,239.007 63.525 C 238.962 63.230,238.926 63.472,238.926 64.063 M106.117 66.797 C 106.117 67.495,106.153 67.781,106.196 67.432 C 106.239 67.083,106.239 66.511,106.196 66.162 C 106.153 65.813,106.117 66.099,106.117 66.797 M350.781 74.707 C 355.776 79.702,359.906 83.789,359.959 83.789 C 360.013 83.789,355.971 79.702,350.977 74.707 C 345.982 69.712,341.852 65.625,341.798 65.625 C 341.745 65.625,345.787 69.712,350.781 74.707 M160.998 67.090 C 160.999 67.734,161.036 67.975,161.079 67.623 C 161.123 67.272,161.122 66.745,161.077 66.452 C 161.032 66.158,160.997 66.445,160.998 67.090 M238.928 67.090 C 238.929 67.734,238.965 67.975,239.009 67.623 C 239.052 67.272,239.051 66.745,239.007 66.452 C 238.962 66.158,238.927 66.445,238.928 67.090 M322.362 84.814 L 313.574 93.652 322.453 84.863 C 327.337 80.029,331.372 76.052,331.421 76.025 C 331.470 75.999,331.429 75.977,331.331 75.977 C 331.232 75.977,327.196 79.954,322.362 84.814 M341.113 85.938 C 345.409 90.234,348.968 93.750,349.022 93.750 C 349.075 93.750,345.604 90.234,341.309 85.938 C 337.013 81.641,333.454 78.125,333.400 78.125 C 333.347 78.125,336.817 81.641,341.113 85.938 M37.500 89.905 C 37.500 89.938,37.786 90.224,38.135 90.540 L 38.770 91.113 38.196 90.479 C 37.661 89.887,37.500 89.754,37.500 89.905 M170.313 89.897 C 170.313 89.927,170.994 90.608,171.826 91.411 L 173.340 92.871 171.880 91.357 C 170.524 89.952,170.313 89.755,170.313 89.897 M228.125 91.309 C 227.325 92.114,226.714 92.773,226.768 92.773 C 226.821 92.773,227.520 92.114,228.320 91.309 C 229.121 90.503,229.731 89.844,229.678 89.844 C 229.624 89.844,228.925 90.503,228.125 91.309 M39.453 91.858 C 39.453 91.892,39.739 92.177,40.088 92.493 L 40.723 93.066 40.149 92.432 C 39.614 91.840,39.453 91.707,39.453 91.858 M176.904 169.864 C 177.146 169.911,177.542 169.911,177.783 169.864 C 178.025 169.818,177.827 169.780,177.344 169.780 C 176.860 169.780,176.663 169.818,176.904 169.864 M221.924 170.447 C 222.112 170.496,222.419 170.496,222.607 170.447 C 222.795 170.398,222.642 170.358,222.266 170.358 C 221.890 170.358,221.736 170.398,221.924 170.447 M359.277 174.023 C 359.806 174.561,360.283 175.000,360.337 175.000 C 360.391 175.000,360.002 174.561,359.473 174.023 C 358.944 173.486,358.467 173.047,358.413 173.047 C 358.359 173.047,358.748 173.486,359.277 174.023 M169.780 177.344 C 169.780 177.827,169.818 178.025,169.864 177.783 C 169.911 177.542,169.911 177.146,169.864 176.904 C 169.818 176.663,169.780 176.860,169.780 177.344 M229.545 177.734 C 229.545 178.218,229.583 178.416,229.630 178.174 C 229.677 177.932,229.677 177.537,229.630 177.295 C 229.583 177.053,229.545 177.251,229.545 177.734 M329.443 177.482 C 329.685 177.528,330.081 177.528,330.322 177.482 C 330.564 177.435,330.366 177.397,329.883 177.397 C 329.399 177.397,329.202 177.435,329.443 177.482 M332.178 177.482 C 332.419 177.528,332.815 177.528,333.057 177.482 C 333.298 177.435,333.101 177.397,332.617 177.397 C 332.134 177.397,331.936 177.435,332.178 177.482 M349.023 184.668 C 349.388 185.044,349.730 185.352,349.784 185.352 C 349.837 185.352,349.583 185.044,349.219 184.668 C 348.854 184.292,348.512 183.984,348.459 183.984 C 348.405 183.984,348.659 184.292,349.023 184.668 M292.241 198.828 C 292.241 199.312,292.279 199.509,292.325 199.268 C 292.372 199.026,292.372 198.630,292.325 198.389 C 292.279 198.147,292.241 198.345,292.241 198.828 M355.534 200.000 C 355.534 200.806,355.569 201.135,355.611 200.732 C 355.653 200.330,355.653 199.670,355.611 199.268 C 355.569 198.865,355.534 199.194,355.534 200.000 M292.241 201.172 C 292.241 201.655,292.279 201.853,292.325 201.611 C 292.372 201.370,292.372 200.974,292.325 200.732 C 292.279 200.491,292.241 200.688,292.241 201.172 M329.443 222.599 C 329.685 222.645,330.081 222.645,330.322 222.599 C 330.564 222.552,330.366 222.514,329.883 222.514 C 329.399 222.514,329.202 222.552,329.443 222.599 M332.178 222.599 C 332.419 222.645,332.815 222.645,333.057 222.599 C 333.298 222.552,333.101 222.514,332.617 222.514 C 332.134 222.514,331.936 222.552,332.178 222.599 M359.270 226.025 L 358.301 227.051 359.326 226.082 C 359.890 225.548,360.352 225.087,360.352 225.056 C 360.352 224.910,360.171 225.073,359.270 226.025 M330.615 237.446 C 330.964 237.489,331.536 237.489,331.885 237.446 C 332.234 237.403,331.948 237.367,331.250 237.367 C 330.552 237.367,330.266 237.403,330.615 237.446 M371.725 267.383 C 371.725 267.759,371.765 267.913,371.814 267.725 C 371.863 267.537,371.863 267.229,371.814 267.041 C 371.765 266.853,371.725 267.007,371.725 267.383 M57.813 314.746 C 62.807 319.741,66.937 323.828,66.991 323.828 C 67.044 323.828,63.002 319.741,58.008 314.746 C 53.014 309.751,48.883 305.664,48.830 305.664 C 48.776 305.664,52.818 309.751,57.813 314.746 M75.878 315.283 L 67.285 323.926 75.928 315.333 C 83.961 307.346,84.658 306.641,84.521 306.641 C 84.493 306.641,80.604 310.530,75.878 315.283 M96.736 312.207 C 96.737 312.744,96.775 312.941,96.820 312.644 C 96.865 312.347,96.864 311.907,96.817 311.667 C 96.771 311.427,96.734 311.670,96.736 312.207 M86.230 325.830 L 77.637 334.473 86.279 325.880 C 94.312 317.893,95.010 317.188,94.872 317.188 C 94.845 317.188,90.956 321.077,86.230 325.830 M48.535 326.367 C 52.938 330.771,56.585 334.375,56.639 334.375 C 56.693 334.375,53.134 330.771,48.730 326.367 C 44.327 321.963,40.680 318.359,40.627 318.359 C 40.573 318.359,44.132 321.963,48.535 326.367 M160.998 332.910 C 160.999 333.555,161.036 333.795,161.079 333.444 C 161.123 333.093,161.122 332.565,161.077 332.272 C 161.032 331.978,160.997 332.266,160.998 332.910 M238.928 332.910 C 238.929 333.555,238.965 333.795,239.009 333.444 C 239.052 333.093,239.051 332.565,239.007 332.272 C 238.962 331.978,238.927 332.266,238.928 332.910 M47.753 343.408 L 38.965 352.246 47.803 343.458 C 52.664 338.624,56.641 334.647,56.641 334.620 C 56.641 334.483,55.922 335.194,47.753 343.408 M86.621 343.555 C 91.562 348.496,95.648 352.539,95.702 352.539 C 95.755 352.539,91.757 348.496,86.816 343.555 C 81.876 338.613,77.790 334.570,77.736 334.570 C 77.682 334.570,81.681 338.613,86.621 343.555 M238.926 335.938 C 238.926 336.528,238.962 336.770,239.007 336.475 C 239.052 336.179,239.052 335.696,239.007 335.400 C 238.962 335.105,238.926 335.347,238.926 335.938 M160.996 336.133 C 160.996 336.724,161.033 336.965,161.077 336.670 C 161.122 336.375,161.122 335.891,161.077 335.596 C 161.033 335.300,160.996 335.542,160.996 336.133 M58.593 353.467 L 50.098 362.012 58.643 353.516 L 67.188 345.021 76.025 353.809 L 84.863 362.598 76.075 353.760 C 71.241 348.899,67.242 344.922,67.187 344.922 C 67.133 344.922,63.265 348.767,58.593 353.467 M182.422 350.098 C 182.786 350.474,183.128 350.781,183.182 350.781 C 183.236 350.781,182.982 350.474,182.617 350.098 C 182.253 349.722,181.911 349.414,181.857 349.414 C 181.803 349.414,182.057 349.722,182.422 350.098 M217.372 350.146 L 216.699 350.879 217.432 350.206 C 217.834 349.836,218.164 349.506,218.164 349.473 C 218.164 349.324,217.999 349.465,217.372 350.146 M37.549 356.738 C 37.551 357.168,37.591 357.321,37.638 357.078 C 37.685 356.835,37.683 356.483,37.634 356.297 C 37.585 356.110,37.547 356.309,37.549 356.738 M171.680 360.254 C 172.263 360.845,172.785 361.328,172.838 361.328 C 172.892 361.328,172.458 360.845,171.875 360.254 C 171.292 359.663,170.770 359.180,170.716 359.180 C 170.663 359.180,171.096 359.663,171.680 360.254 M228.021 360.400 L 226.855 361.621 228.076 360.455 C 228.748 359.814,229.297 359.265,229.297 359.235 C 229.297 359.090,229.104 359.266,228.021 360.400 " stroke="none" fill="#848484" fill-rule="evenodd"></path></g></svg>