<svg id="svg" version="1.1" xmlns="http://www.w3.org/2000/svg" xmlns:xlink="http://www.w3.org/1999/xlink" width="400" height="400" viewBox="0, 0, 400,400"><g id="svgg"><path id="path0" d="M42.200 93.693 C 39.269 94.741,36.968 97.070,35.798 100.168 C 34.766 102.902,35.087 298.771,36.127 300.860 C 37.142 302.899,39.473 305.155,41.600 306.154 L 43.400 307.000 198.200 307.110 C 296.754 307.179,353.920 307.078,355.531 306.831 C 358.836 306.325,361.529 304.604,363.275 301.884 L 364.600 299.818 364.600 200.209 C 364.600 105.761,364.563 100.526,363.893 99.181 C 362.886 97.160,360.682 95.021,358.599 94.042 L 356.809 93.200 200.104 93.232 C 89.565 93.254,43.046 93.390,42.200 93.693 M46.898 101.991 C 49.572 104.094,46.954 108.441,44.128 106.589 C 41.964 105.172,42.172 102.551,44.523 101.604 C 45.756 101.107,45.779 101.111,46.898 101.991 M356.817 102.712 C 358.691 105.094,355.386 108.206,352.987 106.318 C 350.757 104.564,352.575 100.805,355.310 101.514 C 355.700 101.616,356.378 102.155,356.817 102.712 M44.358 103.174 L 43.332 104.215 44.374 105.242 L 45.415 106.268 46.442 105.226 L 47.468 104.185 46.426 103.158 L 45.385 102.132 44.358 103.174 M354.000 102.586 C 354.000 102.908,353.640 103.365,353.200 103.600 C 352.241 104.113,352.148 104.800,353.037 104.800 C 353.388 104.800,353.769 105.160,353.884 105.600 C 354.156 106.641,354.240 106.622,355.685 105.177 C 356.839 104.022,356.862 103.941,356.091 103.740 C 355.642 103.622,355.184 103.183,355.074 102.763 C 354.841 101.869,354.000 101.731,354.000 102.586 M346.340 108.540 L 351.890 114.079 351.845 180.540 L 351.800 247.000 200.000 247.000 L 48.200 247.000 48.142 180.600 L 48.085 114.200 53.759 108.498 L 59.434 102.797 200.112 102.898 L 340.789 103.000 346.340 108.540 M86.000 121.000 C 86.000 121.532,98.400 121.600,195.200 121.600 C 292.000 121.600,304.400 121.532,304.400 121.000 C 304.400 120.468,292.000 120.400,195.200 120.400 C 98.400 120.400,86.000 120.468,86.000 121.000 M86.267 135.867 C 86.120 136.013,86.000 136.283,86.000 136.467 C 86.000 136.650,135.140 136.800,195.200 136.800 C 259.011 136.800,304.400 136.652,304.400 136.443 C 304.400 136.246,304.115 135.976,303.767 135.843 C 302.900 135.510,86.600 135.534,86.267 135.867 M124.800 149.016 C 87.797 154.882,85.322 207.404,121.600 216.909 L 125.000 217.800 200.400 217.800 L 275.800 217.800 279.315 216.697 C 315.183 205.446,311.794 154.616,274.800 148.983 C 269.357 148.155,130.042 148.185,124.800 149.016 M137.000 155.795 C 150.577 158.611,160.354 172.327,158.763 186.326 C 156.099 209.777,127.890 219.781,111.160 203.208 C 91.076 183.313,109.214 150.031,137.000 155.795 M276.151 155.987 C 297.394 161.420,304.510 187.449,289.013 203.033 C 270.227 221.923,238.278 206.535,241.244 180.025 C 243.118 163.274,259.779 151.800,276.151 155.987 M124.481 159.209 C 109.474 163.140,101.607 180.342,108.455 194.251 C 116.850 211.304,140.925 212.884,151.497 197.077 C 164.095 178.242,146.416 153.462,124.481 159.209 M262.881 159.209 C 244.464 164.034,238.173 187.290,251.641 200.759 C 263.637 212.754,284.110 209.424,291.528 194.272 C 300.827 175.277,283.323 153.853,262.881 159.209 M135.027 160.038 C 153.721 163.487,160.822 186.303,147.416 199.845 C 134.540 212.852,112.548 206.781,107.990 188.962 C 103.775 172.479,118.291 156.950,135.027 160.038 M274.962 160.390 C 292.864 164.969,298.816 187.029,285.650 200.006 C 271.175 214.274,246.865 204.775,245.711 184.400 C 244.817 168.616,259.619 156.466,274.962 160.390 M126.200 161.860 C 123.224 162.513,117.600 165.332,117.600 166.171 C 117.600 166.392,118.440 167.426,119.467 168.468 L 121.335 170.364 119.709 172.128 L 118.083 173.892 116.119 171.929 C 114.901 170.711,113.932 170.051,113.565 170.192 C 112.317 170.671,109.200 177.726,109.200 180.073 C 109.200 180.711,109.566 180.800,112.200 180.800 L 115.200 180.800 115.200 183.200 L 115.200 185.600 112.387 185.600 C 108.572 185.600,108.418 187.296,111.649 193.697 C 113.229 196.827,113.654 196.911,116.035 194.565 L 118.009 192.621 119.678 194.290 L 121.348 195.959 119.445 197.993 C 118.399 199.112,117.612 200.246,117.696 200.514 C 117.952 201.324,124.471 204.401,126.481 204.661 L 128.363 204.904 128.481 201.952 L 128.600 199.000 130.882 198.881 L 133.164 198.761 133.282 201.681 L 133.400 204.600 135.200 204.497 C 137.243 204.380,143.505 201.512,143.887 200.518 C 144.041 200.115,143.475 199.278,142.262 198.115 C 140.013 195.960,140.025 196.129,142.002 194.198 L 143.604 192.634 145.571 194.572 C 146.717 195.700,147.772 196.419,148.099 196.294 C 149.492 195.759,152.927 187.177,152.212 186.019 C 152.069 185.789,150.703 185.600,149.176 185.600 L 146.400 185.600 146.400 183.200 L 146.400 180.800 149.400 180.800 C 152.844 180.800,152.836 180.813,151.755 177.173 C 150.927 174.380,149.519 171.610,148.426 170.622 L 147.565 169.844 145.541 171.868 L 143.517 173.892 141.891 172.128 L 140.265 170.364 142.187 168.413 C 144.552 166.012,144.455 165.709,140.738 163.912 C 134.411 160.853,133.200 161.000,133.200 164.824 L 133.200 167.600 130.818 167.600 L 128.435 167.600 128.318 164.704 C 128.195 161.675,128.033 161.458,126.200 161.860 M264.200 162.013 C 262.067 162.448,258.800 163.931,258.800 164.465 C 258.800 164.700,259.430 165.751,260.200 166.800 C 261.961 169.199,261.961 169.205,259.821 170.742 L 258.041 172.020 256.373 169.810 C 254.153 166.870,253.897 166.959,250.744 171.769 C 247.583 176.591,247.673 177.470,251.392 178.086 L 254.076 178.531 253.799 180.765 C 253.456 183.540,253.694 183.373,250.807 182.864 C 246.852 182.167,246.710 182.463,248.067 188.600 C 249.180 193.638,250.023 194.233,253.071 192.133 C 254.242 191.327,255.255 190.742,255.323 190.833 C 255.390 190.925,256.049 191.782,256.786 192.737 C 257.533 193.706,257.957 194.591,257.744 194.737 C 252.802 198.131,252.789 198.168,255.700 200.343 C 261.562 204.723,263.375 204.908,264.001 201.191 L 264.475 198.382 266.538 198.641 C 269.237 198.979,269.252 199.002,268.773 201.973 C 268.502 203.660,268.497 204.657,268.760 204.920 C 269.770 205.930,279.600 203.260,279.600 201.976 C 279.600 201.718,278.970 200.649,278.200 199.600 C 276.471 197.244,276.471 197.245,278.372 195.900 C 280.418 194.454,280.488 194.470,282.162 196.800 C 283.964 199.308,284.399 199.298,286.356 196.700 C 290.215 191.578,290.835 188.996,288.300 188.614 C 284.085 187.978,284.351 188.177,284.640 185.866 C 284.980 183.159,285.013 183.137,287.947 183.653 C 291.274 184.239,291.456 184.038,290.859 180.427 C 289.714 173.492,288.521 172.056,285.654 174.160 C 283.198 175.964,283.197 175.963,281.674 173.843 L 280.413 172.087 282.606 170.430 C 283.813 169.519,284.800 168.591,284.800 168.367 C 284.800 167.110,277.473 162.400,275.517 162.400 C 275.090 162.400,274.793 163.158,274.480 165.046 C 273.940 168.304,274.063 168.192,271.509 167.754 C 269.931 167.484,269.412 167.228,269.449 166.736 C 269.476 166.375,269.624 165.071,269.778 163.839 L 270.058 161.600 267.929 161.644 C 266.758 161.668,265.080 161.834,264.200 162.013 M268.319 165.691 L 268.200 168.582 271.395 169.076 C 275.107 169.651,275.006 169.710,275.566 166.635 C 275.803 165.334,276.082 164.185,276.186 164.081 C 276.475 163.792,280.428 165.900,281.963 167.162 L 283.326 168.282 281.063 169.954 C 278.340 171.965,278.360 171.509,280.838 174.851 C 283.244 178.097,282.809 177.991,285.476 175.978 L 287.625 174.355 288.401 176.109 C 288.828 177.074,289.298 178.898,289.447 180.162 L 289.717 182.460 286.879 182.180 C 283.646 181.862,283.950 181.526,283.238 186.200 C 282.805 189.049,282.876 189.152,285.489 189.461 C 288.991 189.876,288.982 191.563,285.456 195.763 L 284.169 197.296 282.463 195.037 C 281.413 193.646,280.574 192.884,280.279 193.053 C 275.288 195.914,274.687 196.991,276.600 199.653 C 277.370 200.725,278.000 201.684,278.000 201.785 C 278.000 202.148,272.685 203.600,271.358 203.600 C 269.850 203.600,269.829 203.531,270.365 200.268 C 270.744 197.964,270.436 197.758,266.001 197.345 L 263.252 197.090 262.971 199.579 C 262.805 201.041,262.472 202.151,262.164 202.269 C 261.543 202.507,258.187 200.748,256.374 199.234 L 255.097 198.168 257.348 196.618 C 260.056 194.753,260.034 194.994,257.764 191.901 C 255.473 188.779,255.577 188.807,252.957 190.612 C 251.759 191.437,250.723 192.042,250.654 191.956 C 250.139 191.309,249.161 188.011,248.949 186.201 C 248.657 183.718,248.556 183.777,252.103 184.361 C 254.448 184.747,254.543 184.635,255.108 180.821 C 255.646 177.189,255.738 177.341,252.800 177.000 C 249.434 176.609,249.378 176.079,252.244 171.760 C 253.912 169.247,254.435 169.116,255.554 170.926 C 257.376 173.873,257.647 173.922,260.564 171.841 C 263.908 169.454,263.843 169.670,261.988 167.078 C 260.893 165.550,260.540 164.761,260.860 164.563 C 261.835 163.960,265.854 162.842,267.119 162.822 L 268.438 162.800 268.319 165.691 M127.200 166.000 L 127.200 168.800 130.800 168.800 L 134.400 168.800 134.400 166.000 C 134.400 162.801,134.370 162.820,137.698 163.965 C 142.342 165.563,142.766 166.290,140.400 168.600 C 138.356 170.595,138.355 170.584,141.199 173.399 L 143.597 175.772 145.579 173.821 C 147.945 171.490,148.235 171.601,149.766 175.425 C 151.381 179.461,151.322 179.600,148.000 179.600 L 145.200 179.600 145.200 183.200 L 145.200 186.800 148.051 186.800 L 150.902 186.800 150.642 188.430 C 150.366 190.155,148.204 194.800,147.678 194.800 C 147.506 194.800,146.572 193.990,145.600 193.000 C 143.418 190.777,143.712 190.746,141.034 193.488 C 138.340 196.248,138.350 196.116,140.652 198.453 L 142.504 200.334 140.392 201.404 C 135.049 204.112,134.400 203.996,134.400 200.333 L 134.400 197.600 130.800 197.600 L 127.200 197.600 127.200 200.452 L 127.200 203.305 125.759 203.071 C 124.966 202.942,123.134 202.283,121.687 201.606 L 119.055 200.374 120.928 198.473 C 123.270 196.096,123.261 195.892,120.714 193.313 C 118.188 190.755,118.203 190.756,116.000 193.000 C 115.028 193.990,114.102 194.800,113.942 194.800 C 113.462 194.800,111.198 189.895,110.937 188.290 L 110.695 186.800 113.548 186.800 L 116.400 186.800 116.400 183.200 L 116.400 179.600 113.548 179.600 L 110.695 179.600 110.921 178.212 C 111.142 176.849,112.896 172.969,113.631 172.217 C 113.867 171.977,114.745 172.564,116.004 173.804 L 118.003 175.772 120.401 173.399 C 123.238 170.592,123.222 170.693,121.200 168.400 C 119.071 165.986,119.315 165.564,123.768 163.961 C 127.138 162.747,127.200 162.784,127.200 166.000 M234.000 184.200 L 234.000 198.000 219.157 198.000 C 206.074 198.000,204.342 197.928,204.547 197.395 C 205.941 193.761,205.724 179.174,204.161 171.500 L 203.936 170.400 218.968 170.400 L 234.000 170.400 234.000 184.200 M127.333 172.717 C 121.164 174.920,118.178 180.884,120.230 186.907 C 123.643 196.923,138.487 196.681,141.429 186.561 C 143.965 177.836,135.707 169.726,127.333 172.717 M265.682 172.734 C 258.059 175.453,255.599 184.596,260.877 190.593 C 268.911 199.720,283.708 191.050,279.778 179.518 C 277.905 174.019,271.168 170.777,265.682 172.734 M202.177 266.089 C 204.280 269.090,200.262 272.330,197.900 269.539 C 196.337 267.691,197.645 265.200,200.177 265.200 C 201.147 265.200,201.739 265.463,202.177 266.089 M198.979 266.246 C 198.848 266.660,198.569 267.322,198.357 267.716 C 197.897 268.573,198.271 269.335,199.011 269.051 C 199.303 268.939,199.755 269.105,200.016 269.419 C 200.598 270.121,201.200 269.811,201.200 268.810 C 201.200 268.401,201.412 267.996,201.672 267.909 C 201.943 267.819,202.030 267.454,201.875 267.051 C 201.727 266.665,201.413 266.468,201.178 266.614 C 200.942 266.759,200.405 266.566,199.983 266.185 C 199.254 265.525,199.205 265.528,198.979 266.246 M120.926 285.247 C 124.629 287.141,123.486 292.800,119.400 292.800 C 118.318 292.800,117.635 292.496,116.769 291.631 C 113.744 288.606,117.180 283.331,120.926 285.247 M282.408 285.404 C 285.916 287.218,284.551 292.800,280.600 292.800 C 276.703 292.800,275.289 287.280,278.710 285.424 C 280.113 284.662,280.965 284.658,282.408 285.404 M47.277 293.900 C 49.389 296.358,46.847 299.924,44.051 298.427 C 41.653 297.144,42.671 293.200,45.400 293.200 C 46.120 293.200,46.938 293.505,47.277 293.900 M356.605 294.005 C 358.391 295.979,356.763 299.127,354.215 298.628 C 352.697 298.330,352.000 297.423,352.000 295.746 C 352.000 293.451,355.057 292.295,356.605 294.005 M99.140 295.011 C 100.676 296.303,101.055 297.947,100.199 299.602 C 98.905 302.104,95.607 302.475,93.796 300.322 C 90.791 296.750,95.567 292.004,99.140 295.011 M305.142 294.570 C 307.233 295.651,307.811 298.456,306.300 300.185 C 304.377 302.384,301.087 302.089,299.801 299.601 C 298.035 296.187,301.663 292.771,305.142 294.570 M43.964 294.647 C 43.492 296.629,43.897 297.400,45.411 297.400 C 46.928 297.400,46.968 297.363,47.018 295.926 C 47.069 294.471,47.050 294.452,45.535 294.473 C 44.691 294.485,43.984 294.563,43.964 294.647 M352.988 294.820 C 352.877 294.998,352.979 295.263,353.213 295.408 C 353.511 295.592,353.502 295.836,353.185 296.218 C 352.495 297.049,353.011 297.478,354.632 297.421 C 356.989 297.340,357.086 294.441,354.731 294.473 C 353.883 294.485,353.098 294.641,352.988 294.820 " stroke="none" fill="#444444" fill-rule="evenodd"></path><path id="path1" d="M0.000 200.000 L 0.000 400.000 200.000 400.000 L 400.000 400.000 400.000 200.000 L 400.000 0.000 200.000 0.000 L 0.000 0.000 0.000 200.000 M358.600 93.743 C 361.312 95.012,363.786 97.783,364.573 100.435 C 365.533 103.666,365.530 296.890,364.570 299.707 C 363.719 302.203,361.078 305.107,358.615 306.254 L 356.600 307.192 200.000 307.192 L 43.400 307.192 41.385 306.254 C 38.922 305.107,36.281 302.203,35.430 299.707 C 34.495 296.962,34.464 103.676,35.398 100.531 C 36.177 97.910,38.780 94.959,41.385 93.746 L 43.400 92.808 200.000 92.808 L 356.600 92.808 358.600 93.743 M53.895 108.705 L 48.400 114.210 48.400 138.105 L 48.400 162.000 75.300 161.999 L 102.200 161.998 105.178 158.971 C 110.259 153.806,116.381 150.370,122.883 149.034 C 127.354 148.115,272.370 148.064,276.674 148.980 C 284.386 150.621,291.459 154.711,295.861 160.074 L 297.400 161.949 324.500 161.974 L 351.600 162.000 351.600 138.095 L 351.600 114.189 346.095 108.695 L 340.590 103.200 199.989 103.200 L 59.389 103.200 53.895 108.705 M304.800 121.000 C 304.800 121.532,292.356 121.600,195.200 121.600 C 98.044 121.600,85.600 121.532,85.600 121.000 C 85.600 120.468,98.044 120.400,195.200 120.400 C 292.356 120.400,304.800 120.468,304.800 121.000 M304.600 136.400 C 304.600 137.103,86.577 137.537,85.876 136.836 C 85.674 136.634,85.631 136.274,85.779 136.034 C 86.252 135.268,304.600 135.633,304.600 136.400 M126.614 155.619 C 104.451 159.086,95.150 186.089,110.538 202.291 C 124.793 217.298,149.310 212.492,156.909 193.200 C 164.617 173.632,147.467 152.358,126.614 155.619 M265.064 155.594 C 242.180 159.730,233.340 186.656,249.553 202.841 C 267.771 221.028,298.751 207.064,297.071 181.424 C 296.020 165.381,280.447 152.814,265.064 155.594 M136.800 158.873 C 144.759 160.724,152.156 167.557,154.623 175.337 C 162.638 200.614,131.737 219.652,113.046 200.953 C 95.204 183.103,112.122 153.133,136.800 158.873 M275.800 159.059 C 295.148 163.971,300.806 189.830,285.322 202.577 C 265.760 218.682,237.266 198.982,245.513 175.056 C 248.707 165.792,255.990 160.037,266.800 158.234 C 268.423 157.964,273.215 158.403,275.800 159.059 M266.600 163.105 C 265.205 163.261,261.541 164.371,261.096 164.773 C 260.929 164.924,261.424 165.937,262.196 167.023 C 264.044 169.622,264.048 169.610,260.765 171.998 C 257.561 174.328,257.568 174.329,255.363 171.147 C 254.084 169.301,254.001 169.344,251.824 172.976 C 250.039 175.955,250.047 176.306,251.900 176.609 C 256.177 177.308,255.976 176.969,255.136 182.057 L 254.671 184.868 251.875 184.587 L 249.079 184.307 249.336 186.497 C 249.584 188.607,250.577 191.600,251.029 191.600 C 251.150 191.600,252.073 190.970,253.082 190.200 C 255.514 188.342,255.623 188.373,257.758 191.500 C 260.041 194.843,260.040 194.856,257.606 196.673 L 255.612 198.162 256.482 199.088 C 256.961 199.597,258.443 200.560,259.776 201.227 L 262.200 202.441 262.522 200.520 C 263.242 196.229,262.842 196.470,267.800 197.342 L 270.600 197.834 270.479 200.739 L 270.359 203.644 271.879 203.384 C 273.943 203.031,277.600 201.907,277.600 201.626 C 277.600 201.500,276.970 200.511,276.200 199.428 C 274.405 196.903,274.395 196.942,277.415 194.700 C 280.599 192.337,280.795 192.341,282.614 194.819 C 284.368 197.209,284.699 197.081,286.756 193.222 C 288.395 190.146,288.388 190.124,285.571 189.797 C 282.608 189.453,282.526 189.286,283.244 185.066 C 283.867 181.406,283.673 181.535,287.688 182.111 L 289.576 182.381 289.364 181.091 C 288.366 175.012,287.950 174.473,285.574 176.180 C 282.967 178.053,282.851 178.025,280.673 174.997 C 278.341 171.756,278.346 171.601,280.830 169.778 C 283.167 168.063,283.169 168.069,279.424 165.824 C 276.268 163.933,276.109 163.972,275.779 166.700 C 275.389 169.929,275.363 169.946,271.593 169.399 C 267.510 168.807,267.381 168.675,267.875 165.604 C 268.309 162.915,268.309 162.915,266.600 163.105 M124.200 164.180 C 118.904 166.155,118.986 166.031,121.400 168.400 C 123.659 170.617,123.665 170.565,120.888 173.313 C 118.140 176.033,117.826 176.075,115.800 174.000 C 113.632 171.780,113.318 172.008,111.578 177.065 L 110.843 179.200 113.145 179.200 C 116.579 179.200,116.859 179.544,116.718 183.608 L 116.600 187.000 113.900 187.118 C 110.747 187.256,110.601 187.574,112.117 191.000 C 113.859 194.937,113.685 194.864,115.976 192.616 L 117.998 190.632 119.871 192.416 C 123.836 196.192,123.781 195.971,121.326 198.291 C 119.810 199.723,119.561 200.137,120.026 200.460 C 120.998 201.135,124.539 202.698,125.700 202.963 L 126.800 203.215 126.800 200.408 L 126.800 197.600 130.800 197.600 L 134.800 197.600 134.800 200.408 L 134.800 203.215 135.900 202.967 C 137.366 202.636,142.000 200.513,142.000 200.173 C 142.000 200.025,141.190 199.128,140.200 198.179 C 137.946 196.020,137.907 196.265,140.998 193.202 L 143.596 190.627 145.589 192.589 C 146.685 193.669,147.663 194.470,147.763 194.370 C 148.309 193.824,150.399 188.868,150.400 188.118 C 150.400 187.308,150.181 187.227,147.700 187.118 L 145.000 187.000 144.883 183.434 C 144.747 179.259,144.782 179.215,148.263 179.206 C 151.120 179.199,151.110 179.249,149.167 174.900 C 147.848 171.948,147.813 171.938,145.800 174.000 C 143.774 176.075,143.460 176.033,140.712 173.313 C 137.935 170.565,137.941 170.617,140.200 168.400 C 141.190 167.428,142.000 166.527,142.000 166.396 C 142.000 166.057,138.500 164.398,136.517 163.798 L 134.833 163.288 134.717 166.144 L 134.600 169.000 130.800 169.000 L 127.000 169.000 126.800 166.142 L 126.600 163.285 124.200 164.180 M204.400 170.904 C 204.400 171.072,204.690 172.962,205.045 175.104 C 205.762 179.437,205.889 190.942,205.264 195.000 C 205.060 196.320,204.973 197.535,205.071 197.700 C 205.276 198.048,232.437 198.114,233.338 197.769 C 234.346 197.382,234.323 170.802,233.314 170.796 C 232.921 170.793,226.255 170.748,218.500 170.696 C 210.745 170.643,204.400 170.737,204.400 170.904 M135.168 172.696 C 142.425 175.728,144.426 184.987,139.129 191.020 C 134.931 195.802,126.845 195.846,122.567 191.110 C 114.356 182.022,123.946 168.007,135.168 172.696 M273.593 172.701 C 280.750 175.663,282.801 185.016,277.594 190.946 C 273.319 195.815,265.113 195.852,260.871 191.020 C 252.874 181.912,262.468 168.096,273.593 172.701 M48.400 225.600 L 48.400 246.800 200.000 246.800 L 351.600 246.800 351.600 225.600 L 351.600 204.400 324.785 204.400 L 297.969 204.400 294.471 207.900 C 289.433 212.941,283.960 215.936,276.920 217.505 C 272.665 218.453,128.587 218.590,123.800 217.650 C 116.782 216.273,110.648 213.003,105.505 207.900 L 101.978 204.400 75.189 204.400 L 48.400 204.400 48.400 225.600 M117.721 285.605 C 115.501 286.499,115.123 290.052,117.085 291.595 C 120.141 294.000,124.389 290.659,122.621 287.241 C 121.631 285.326,119.872 284.739,117.721 285.605 M278.700 285.632 C 276.640 286.832,276.411 290.121,278.285 291.595 C 281.341 294.000,285.589 290.659,283.821 287.241 C 282.829 285.323,280.491 284.589,278.700 285.632 M94.182 295.382 C 92.699 296.865,92.811 299.202,94.431 300.564 C 96.098 301.967,97.740 301.921,99.231 300.431 C 101.659 298.002,100.207 294.400,96.800 294.400 C 95.596 294.400,94.904 294.659,94.182 295.382 M300.655 295.455 C 297.408 298.701,302.050 303.526,305.569 300.564 C 306.562 299.729,306.800 299.222,306.800 297.946 C 306.800 294.656,302.996 293.113,300.655 295.455 " stroke="none" fill="#fbfbfb" fill-rule="evenodd"></path><path id="path2" d="M48.400 172.600 L 48.400 182.800 49.400 182.811 C 49.950 182.816,60.120 182.821,72.000 182.821 C 83.880 182.821,93.947 182.816,94.371 182.811 C 95.011 182.802,95.188 182.407,95.410 180.500 C 96.089 174.662,97.739 169.610,100.506 164.900 L 101.975 162.400 75.187 162.400 L 48.400 162.400 48.400 172.600 M298.400 162.732 C 298.400 162.914,299.215 164.489,300.211 166.232 C 302.639 170.481,303.873 174.584,304.623 180.900 L 304.849 182.800 328.225 182.800 L 351.600 182.800 351.600 172.600 L 351.600 162.400 325.000 162.400 C 310.370 162.400,298.400 162.549,298.400 162.732 " stroke="none" fill="#e9466d" fill-rule="evenodd"></path><path id="path3" d="M48.667 183.867 C 48.520 184.013,48.400 188.693,48.400 194.267 L 48.400 204.400 75.214 204.400 L 102.028 204.400 101.572 203.547 C 101.320 203.078,100.593 201.870,99.955 200.864 C 97.570 197.104,95.200 189.247,95.200 185.100 L 95.200 183.600 72.067 183.600 C 59.343 183.600,48.813 183.720,48.667 183.867 M305.037 184.097 C 304.959 184.374,304.688 186.183,304.434 188.118 C 303.896 192.217,302.139 197.353,300.142 200.666 C 299.368 201.950,298.705 203.180,298.668 203.400 C 298.630 203.620,298.420 203.932,298.200 204.094 C 297.980 204.256,309.812 204.391,324.492 204.394 L 351.185 204.400 351.405 203.500 C 351.526 203.005,351.575 198.370,351.513 193.200 L 351.400 183.800 328.289 183.697 C 309.991 183.615,305.148 183.698,305.037 184.097 " stroke="none" fill="#6de2e2" fill-rule="evenodd"></path><path id="path4" d="M42.200 93.424 C 41.540 93.747,41.360 93.874,41.800 93.706 C 42.240 93.538,113.340 93.309,199.800 93.199 L 357.000 92.997 200.200 92.917 C 62.944 92.846,43.250 92.909,42.200 93.424 M362.394 97.003 C 363.987 98.921,364.121 99.045,363.686 98.196 C 363.459 97.753,362.852 97.034,362.337 96.598 C 361.433 95.834,361.435 95.848,362.394 97.003 M44.523 101.604 C 42.172 102.551,41.964 105.172,44.128 106.589 C 46.954 108.441,49.572 104.094,46.898 101.991 C 45.779 101.111,45.756 101.107,44.523 101.604 M354.000 101.517 C 351.850 102.188,351.264 104.963,352.987 106.318 C 355.386 108.206,358.691 105.094,356.817 102.712 C 355.967 101.632,354.978 101.212,354.000 101.517 M34.997 200.200 C 34.997 254.320,35.043 276.401,35.100 249.268 C 35.157 222.135,35.157 177.855,35.100 150.868 C 35.043 123.881,34.997 146.080,34.997 200.200 M46.442 105.226 L 45.415 106.268 44.374 105.242 L 43.332 104.215 44.358 103.174 L 45.385 102.132 46.426 103.158 L 47.468 104.185 46.442 105.226 M355.074 102.763 C 355.184 103.183,355.642 103.622,356.091 103.740 C 356.862 103.941,356.839 104.022,355.685 105.177 C 354.240 106.622,354.156 106.641,353.884 105.600 C 353.769 105.160,353.388 104.800,353.037 104.800 C 352.148 104.800,352.241 104.113,353.200 103.600 C 353.640 103.365,354.000 102.908,354.000 102.586 C 354.000 101.731,354.841 101.869,355.074 102.763 M364.997 200.200 C 364.997 254.320,365.043 276.401,365.100 249.268 C 365.157 222.135,365.157 177.855,365.100 150.868 C 365.043 123.881,364.997 146.080,364.997 200.200 M129.468 103.100 C 168.005 103.156,231.185 103.156,269.868 103.100 C 308.550 103.044,277.020 102.998,199.800 102.998 C 122.580 102.998,90.930 103.044,129.468 103.100 M53.594 108.700 L 48.200 114.200 53.700 108.806 C 58.809 103.794,59.381 103.200,59.094 103.200 C 59.036 103.200,56.561 105.675,53.594 108.700 M346.100 108.605 L 351.600 114.210 351.600 138.105 L 351.600 162.000 324.576 162.000 C 309.713 162.000,297.636 162.135,297.738 162.300 C 297.840 162.465,310.046 162.510,324.862 162.400 L 351.800 162.200 351.903 138.198 L 352.006 114.195 346.303 108.598 L 340.600 103.000 346.100 108.605 M48.195 138.200 L 48.200 162.200 75.228 162.303 L 102.255 162.406 103.228 161.303 L 104.200 160.200 103.174 161.100 L 102.148 162.000 75.277 162.000 L 48.406 162.000 48.298 138.100 L 48.190 114.200 48.195 138.200 M85.778 136.035 C 85.631 136.274,85.674 136.634,85.876 136.836 C 86.548 137.508,304.600 137.107,304.600 136.433 C 304.600 136.122,304.370 135.820,304.090 135.763 C 303.810 135.706,303.764 135.751,303.990 135.863 C 304.215 135.975,304.400 136.232,304.400 136.433 C 304.400 136.655,261.098 136.800,195.157 136.800 C 98.217 136.800,85.940 136.732,86.145 136.200 C 86.411 135.505,86.173 135.397,85.778 136.035 M125.905 148.683 C 126.402 148.779,127.122 148.775,127.505 148.675 C 127.887 148.575,127.480 148.496,126.600 148.501 C 125.720 148.505,125.407 148.587,125.905 148.683 M272.705 148.683 C 273.202 148.779,273.922 148.775,274.305 148.675 C 274.687 148.575,274.280 148.496,273.400 148.501 C 272.520 148.505,272.207 148.587,272.705 148.683 M118.600 150.186 C 117.055 150.893,117.774 150.903,119.600 150.200 C 120.370 149.903,120.730 149.655,120.400 149.648 C 120.070 149.642,119.260 149.883,118.600 150.186 M114.700 151.826 C 113.655 152.370,112.800 152.905,112.800 153.014 C 112.800 153.193,116.760 151.323,117.167 150.952 C 117.662 150.501,116.361 150.962,114.700 151.826 M282.833 150.933 C 282.925 151.006,284.440 151.819,286.200 152.739 C 287.960 153.658,289.040 154.124,288.600 153.773 C 287.729 153.079,283.395 150.800,282.945 150.800 C 282.792 150.800,282.742 150.860,282.833 150.933 M126.900 155.476 C 127.285 155.576,127.915 155.576,128.300 155.476 C 128.685 155.375,128.370 155.293,127.600 155.293 C 126.830 155.293,126.515 155.375,126.900 155.476 M271.700 155.476 C 272.085 155.576,272.715 155.576,273.100 155.476 C 273.485 155.375,273.170 155.293,272.400 155.293 C 271.630 155.293,271.315 155.375,271.700 155.476 M129.900 158.282 C 130.395 158.378,131.205 158.378,131.700 158.282 C 132.195 158.187,131.790 158.109,130.800 158.109 C 129.810 158.109,129.405 158.187,129.900 158.282 M268.300 158.282 C 268.795 158.378,269.605 158.378,270.100 158.282 C 270.595 158.187,270.190 158.109,269.200 158.109 C 268.210 158.109,267.805 158.187,268.300 158.282 M125.800 160.198 C 107.604 164.246,101.066 186.570,114.188 199.845 C 128.891 214.718,154.353 204.167,154.394 183.184 C 154.423 168.353,140.272 156.977,125.800 160.198 M263.967 160.209 C 245.677 164.650,239.430 186.841,252.765 200.000 C 267.608 214.648,292.753 204.084,292.794 183.184 C 292.823 168.301,278.303 156.728,263.967 160.209 M288.980 163.600 C 292.233 167.183,292.742 167.665,291.303 165.800 C 290.623 164.920,289.292 163.480,288.344 162.600 C 287.111 161.456,287.292 161.740,288.980 163.600 M110.800 163.400 C 109.828 164.390,109.123 165.200,109.233 165.200 C 109.343 165.200,110.228 164.390,111.200 163.400 C 112.172 162.410,112.877 161.600,112.767 161.600 C 112.657 161.600,111.772 162.410,110.800 163.400 M128.318 164.704 L 128.435 167.600 130.818 167.600 L 133.200 167.600 133.200 164.824 C 133.200 161.000,134.411 160.853,140.738 163.912 C 144.455 165.709,144.552 166.012,142.187 168.413 L 140.265 170.364 141.891 172.128 L 143.517 173.892 145.541 171.868 L 147.565 169.844 148.426 170.622 C 149.519 171.610,150.927 174.380,151.755 177.173 C 152.836 180.813,152.844 180.800,149.400 180.800 L 146.400 180.800 146.400 183.200 L 146.400 185.600 149.176 185.600 C 150.703 185.600,152.069 185.789,152.212 186.019 C 152.927 187.177,149.492 195.759,148.099 196.294 C 147.772 196.419,146.717 195.700,145.571 194.572 L 143.604 192.634 142.002 194.198 C 140.025 196.129,140.013 195.960,142.262 198.115 C 143.475 199.278,144.041 200.115,143.887 200.518 C 143.505 201.512,137.243 204.380,135.200 204.497 L 133.400 204.600 133.282 201.681 L 133.164 198.761 130.882 198.881 L 128.600 199.000 128.481 201.952 L 128.363 204.904 126.481 204.661 C 124.471 204.401,117.952 201.324,117.696 200.514 C 117.612 200.246,118.399 199.112,119.445 197.993 L 121.348 195.959 119.678 194.290 L 118.009 192.621 116.035 194.565 C 113.654 196.911,113.229 196.827,111.649 193.697 C 108.418 187.296,108.572 185.600,112.387 185.600 L 115.200 185.600 115.200 183.200 L 115.200 180.800 112.200 180.800 C 109.566 180.800,109.200 180.711,109.200 180.073 C 109.200 177.726,112.317 170.671,113.565 170.192 C 113.932 170.051,114.901 170.711,116.119 171.929 L 118.083 173.892 119.709 172.128 L 121.335 170.364 119.467 168.468 C 118.440 167.426,117.600 166.392,117.600 166.171 C 117.600 165.332,123.224 162.513,126.200 161.860 C 128.033 161.458,128.195 161.675,128.318 164.704 M150.777 163.800 C 153.767 167.126,154.346 167.670,152.904 165.800 C 152.226 164.920,150.984 163.570,150.145 162.800 C 149.147 161.884,149.365 162.230,150.777 163.800 M249.171 163.500 C 247.362 165.410,245.290 167.920,246.446 166.800 C 247.760 165.528,251.307 161.600,251.143 161.600 C 251.048 161.600,250.160 162.455,249.171 163.500 M269.778 163.839 C 269.624 165.071,269.476 166.375,269.449 166.736 C 269.412 167.228,269.931 167.484,271.509 167.754 C 274.063 168.192,273.940 168.304,274.480 165.046 C 274.793 163.158,275.090 162.400,275.517 162.400 C 277.473 162.400,284.800 167.110,284.800 168.367 C 284.800 168.591,283.813 169.519,282.606 170.430 L 280.413 172.087 281.674 173.843 C 283.197 175.963,283.198 175.964,285.654 174.160 C 288.521 172.056,289.714 173.492,290.859 180.427 C 291.456 184.038,291.274 184.239,287.947 183.653 C 285.013 183.137,284.980 183.159,284.640 185.866 C 284.351 188.177,284.085 187.978,288.300 188.614 C 290.835 188.996,290.215 191.578,286.356 196.700 C 284.399 199.298,283.964 199.308,282.162 196.800 C 280.488 194.470,280.418 194.454,278.372 195.900 C 276.471 197.245,276.471 197.244,278.200 199.600 C 278.970 200.649,279.600 201.718,279.600 201.976 C 279.600 203.260,269.770 205.930,268.760 204.920 C 268.497 204.657,268.502 203.660,268.773 201.973 C 269.252 199.002,269.237 198.979,266.538 198.641 L 264.475 198.382 264.001 201.191 C 263.375 204.908,261.562 204.723,255.700 200.343 C 252.789 198.168,252.802 198.131,257.744 194.737 C 257.957 194.591,257.533 193.706,256.786 192.737 C 256.049 191.782,255.390 190.925,255.323 190.833 C 255.255 190.742,254.242 191.327,253.071 192.133 C 250.023 194.233,249.180 193.638,248.067 188.600 C 246.710 182.463,246.852 182.167,250.807 182.864 C 253.694 183.373,253.456 183.540,253.799 180.765 L 254.076 178.531 251.392 178.086 C 247.673 177.470,247.583 176.591,250.744 171.769 C 253.897 166.959,254.153 166.870,256.373 169.810 L 258.041 172.020 259.821 170.742 C 261.961 169.205,261.961 169.199,260.200 166.800 C 259.430 165.751,258.800 164.700,258.800 164.465 C 258.800 163.385,264.183 161.721,267.929 161.644 L 270.058 161.600 269.778 163.839 M112.730 165.900 C 111.299 167.385,109.914 169.050,109.653 169.600 L 109.177 170.600 109.880 169.600 C 110.266 169.050,111.741 167.385,113.157 165.900 C 114.573 164.415,115.641 163.200,115.531 163.200 C 115.421 163.200,114.161 164.415,112.730 165.900 M126.970 166.000 L 127.000 169.000 130.800 169.000 L 134.600 169.000 134.626 166.200 L 134.652 163.400 134.509 166.100 L 134.365 168.800 130.800 168.800 L 127.235 168.800 127.087 165.900 L 126.939 163.000 126.970 166.000 M148.200 165.600 C 149.506 166.920,150.665 168.000,150.775 168.000 C 150.885 168.000,149.906 166.920,148.600 165.600 C 147.294 164.280,146.135 163.200,146.025 163.200 C 145.915 163.200,146.894 164.280,148.200 165.600 M251.387 165.700 L 249.000 168.200 251.500 165.813 C 252.875 164.499,254.000 163.374,254.000 163.313 C 254.000 163.017,253.605 163.378,251.387 165.700 M286.600 165.600 C 287.906 166.920,289.065 168.000,289.175 168.000 C 289.285 168.000,288.306 166.920,287.000 165.600 C 285.694 164.280,284.535 163.200,284.425 163.200 C 284.315 163.200,285.294 164.280,286.600 165.600 M107.879 166.900 C 106.794 168.368,106.062 169.632,106.663 169.000 C 107.405 168.220,109.238 165.600,109.041 165.600 C 108.931 165.600,108.408 166.185,107.879 166.900 M267.600 167.176 C 267.600 167.823,267.742 168.441,267.916 168.548 C 268.090 168.656,268.161 168.127,268.073 167.372 C 267.876 165.691,267.600 165.577,267.600 167.176 M140.083 168.515 C 137.951 170.688,137.932 170.578,140.900 173.413 L 143.400 175.800 141.100 173.388 C 138.353 170.508,138.373 170.666,140.483 168.515 C 141.409 167.572,142.077 166.800,141.967 166.800 C 141.857 166.800,141.009 167.572,140.083 168.515 M282.317 167.616 C 282.749 168.099,282.617 168.381,281.517 169.335 L 280.200 170.476 281.488 169.619 C 283.180 168.494,283.327 168.194,282.496 167.565 C 281.897 167.112,281.872 167.119,282.317 167.616 M275.246 168.220 C 275.221 168.671,275.021 169.257,274.801 169.521 C 274.582 169.786,274.690 169.753,275.040 169.449 C 275.390 169.144,275.590 168.558,275.485 168.147 C 275.312 167.474,275.288 167.481,275.246 168.220 M152.199 170.627 C 152.970 171.906,153.600 173.129,153.600 173.343 C 153.600 173.558,153.708 173.625,153.840 173.494 C 154.123 173.210,152.103 169.383,151.332 168.744 C 151.039 168.500,151.429 169.348,152.199 170.627 M122.100 169.431 C 123.093 170.611,123.053 170.712,120.500 173.388 L 118.200 175.800 120.700 173.413 C 123.475 170.763,123.595 170.458,122.300 169.362 C 121.401 168.601,121.401 168.601,122.100 169.431 M293.878 170.195 C 294.244 170.962,294.614 171.519,294.701 171.432 C 294.884 171.249,293.670 168.800,293.396 168.800 C 293.295 168.800,293.512 169.428,293.878 170.195 M212.300 170.699 C 215.875 170.766,221.725 170.766,225.300 170.699 C 228.875 170.633,225.950 170.579,218.800 170.579 C 211.650 170.579,208.725 170.633,212.300 170.699 M108.181 172.037 C 107.829 172.718,107.612 173.345,107.699 173.432 C 107.786 173.519,108.156 172.962,108.522 172.195 C 109.344 170.470,109.059 170.338,108.181 172.037 M291.478 172.195 C 291.844 172.962,292.214 173.519,292.301 173.432 C 292.484 173.249,291.270 170.800,290.996 170.800 C 290.895 170.800,291.112 171.428,291.478 172.195 M113.362 172.462 C 113.177 172.760,113.253 172.814,113.576 172.615 C 113.891 172.420,114.759 172.948,115.937 174.053 L 117.800 175.800 116.017 173.900 C 114.131 171.891,113.819 171.722,113.362 172.462 M126.149 172.767 C 125.241 173.179,124.364 173.734,124.200 174.000 C 124.036 174.266,124.369 174.177,124.940 173.802 C 125.511 173.428,126.749 172.881,127.689 172.588 C 128.630 172.294,129.040 172.045,128.600 172.036 C 128.160 172.026,127.057 172.355,126.149 172.767 M132.433 172.144 C 132.525 172.223,133.140 172.408,133.800 172.556 C 134.676 172.752,134.838 172.715,134.400 172.418 C 133.860 172.053,132.032 171.798,132.433 172.144 M145.583 173.900 L 143.800 175.800 145.615 174.100 C 147.819 172.036,147.790 172.038,148.773 173.900 C 149.208 174.725,149.572 175.220,149.581 175.000 C 149.604 174.427,148.074 172.000,147.689 172.000 C 147.512 172.000,146.564 172.855,145.583 173.900 M256.897 173.000 C 257.973 174.153,258.009 174.161,258.697 173.410 C 259.368 172.678,259.368 172.668,258.688 173.181 C 258.073 173.645,257.830 173.589,256.888 172.770 L 255.800 171.823 256.897 173.000 M265.600 172.418 C 265.162 172.715,265.324 172.752,266.200 172.556 C 267.671 172.227,267.990 171.998,266.967 172.006 C 266.545 172.009,265.930 172.195,265.600 172.418 M270.833 172.144 C 270.925 172.223,271.540 172.408,272.200 172.556 C 273.076 172.752,273.238 172.715,272.800 172.418 C 272.260 172.053,270.432 171.798,270.833 172.144 M273.633 172.921 C 273.725 172.988,274.340 173.358,275.000 173.745 L 276.200 174.447 275.256 173.624 C 274.736 173.171,274.121 172.800,273.889 172.800 C 273.657 172.800,273.542 172.854,273.633 172.921 M111.246 176.839 C 111.001 177.543,110.813 178.318,110.828 178.560 C 110.844 178.802,111.114 178.296,111.430 177.435 C 111.745 176.574,111.933 175.800,111.848 175.715 C 111.762 175.629,111.492 176.135,111.246 176.839 M140.525 177.968 C 141.000 178.835,141.450 179.484,141.524 179.409 C 141.718 179.216,140.477 176.895,140.034 176.621 C 139.829 176.494,140.050 177.100,140.525 177.968 M288.456 176.800 C 288.456 177.130,288.611 177.760,288.800 178.200 C 289.017 178.704,289.144 178.778,289.144 178.400 C 289.144 178.070,288.989 177.440,288.800 177.000 C 288.583 176.496,288.456 176.422,288.456 176.800 M205.314 179.400 C 205.317 180.500,205.395 180.903,205.487 180.295 C 205.579 179.686,205.577 178.786,205.482 178.295 C 205.387 177.803,205.311 178.300,205.314 179.400 M111.900 179.489 C 112.615 179.578,113.785 179.578,114.500 179.489 C 115.215 179.401,114.630 179.328,113.200 179.328 C 111.770 179.328,111.185 179.401,111.900 179.489 M146.691 179.489 C 147.401 179.577,148.661 179.579,149.491 179.492 C 150.321 179.405,149.740 179.333,148.200 179.331 C 146.660 179.329,145.981 179.400,146.691 179.489 M144.978 183.400 L 145.000 187.000 147.674 187.118 C 150.068 187.223,150.367 187.328,150.520 188.118 C 150.662 188.853,150.700 188.816,150.746 187.900 C 150.800 186.800,150.800 186.800,148.015 186.800 L 145.230 186.800 145.093 183.300 L 144.955 179.800 144.978 183.400 M105.740 183.200 C 105.740 185.070,105.809 185.835,105.893 184.900 C 105.977 183.965,105.977 182.435,105.893 181.500 C 105.809 180.565,105.740 181.330,105.740 183.200 M116.480 183.300 L 116.400 186.800 113.600 186.800 L 110.800 186.800 110.854 187.900 C 110.901 188.843,110.934 188.872,111.082 188.100 C 111.241 187.277,111.478 187.200,113.840 187.200 C 116.904 187.200,116.884 187.230,116.698 182.965 L 116.561 179.800 116.480 183.300 M294.140 183.200 C 294.140 185.070,294.209 185.835,294.293 184.900 C 294.377 183.965,294.377 182.435,294.293 181.500 C 294.209 180.565,294.140 181.330,294.140 183.200 M155.737 183.400 C 155.739 185.160,155.809 185.830,155.893 184.889 C 155.978 183.949,155.977 182.509,155.891 181.689 C 155.805 180.870,155.736 181.640,155.737 183.400 M244.134 183.200 C 244.134 184.850,244.205 185.525,244.291 184.700 C 244.378 183.875,244.378 182.525,244.291 181.700 C 244.205 180.875,244.134 181.550,244.134 183.200 M283.867 181.867 C 283.720 182.013,283.603 182.328,283.606 182.567 C 283.610 182.860,283.707 182.853,283.906 182.546 C 284.068 182.297,284.560 182.003,285.000 181.893 C 285.774 181.699,285.773 181.691,284.967 181.646 C 284.508 181.621,284.013 181.720,283.867 181.867 M297.301 183.000 C 297.305 183.880,297.387 184.193,297.483 183.695 C 297.579 183.198,297.575 182.478,297.475 182.095 C 297.375 181.713,297.296 182.120,297.301 183.000 M48.400 183.317 C 48.400 183.690,53.712 183.776,71.779 183.694 L 95.158 183.587 95.316 185.694 C 95.470 187.730,95.474 187.720,95.437 185.400 L 95.400 183.000 71.900 182.917 C 53.751 182.852,48.400 182.943,48.400 183.317 M304.643 183.433 C 304.509 183.781,304.428 184.906,304.463 185.933 L 304.526 187.800 304.763 185.800 L 305.000 183.800 328.300 183.800 C 346.673 183.800,351.600 183.694,351.600 183.300 C 351.600 182.451,304.969 182.582,304.643 183.433 M205.720 185.600 C 205.720 186.810,205.795 187.305,205.887 186.700 C 205.978 186.095,205.978 185.105,205.887 184.500 C 205.795 183.895,205.720 184.390,205.720 185.600 M248.864 185.500 C 248.926 186.941,248.934 186.950,249.088 185.725 C 249.203 184.798,249.487 184.403,250.123 184.279 C 250.846 184.139,250.807 184.099,249.900 184.054 C 248.875 184.004,248.804 184.103,248.864 185.500 M253.944 189.624 L 253.000 190.447 254.097 189.780 C 254.700 189.413,255.475 189.220,255.818 189.351 C 256.176 189.489,256.338 189.423,256.197 189.195 C 255.811 188.570,254.968 188.731,253.944 189.624 M149.290 191.330 C 147.730 194.881,147.867 194.833,145.614 192.614 C 143.650 190.679,143.582 190.649,142.900 191.393 C 142.231 192.122,142.232 192.132,142.920 191.613 C 143.561 191.128,143.846 191.273,145.534 192.935 C 146.575 193.961,147.554 194.800,147.708 194.800 C 148.081 194.800,150.479 190.028,150.322 189.597 C 150.255 189.412,149.791 190.192,149.290 191.330 M122.800 191.400 C 123.546 192.170,124.247 192.800,124.357 192.800 C 124.467 192.800,123.946 192.170,123.200 191.400 C 122.454 190.630,121.753 190.000,121.643 190.000 C 121.533 190.000,122.054 190.630,122.800 191.400 M138.378 191.500 L 137.000 193.000 138.500 191.622 C 139.325 190.863,140.000 190.188,140.000 190.122 C 140.000 189.816,139.662 190.104,138.378 191.500 M257.200 191.200 C 257.670 191.860,258.144 192.400,258.254 192.400 C 258.364 192.400,258.070 191.860,257.600 191.200 C 257.130 190.540,256.656 190.000,256.546 190.000 C 256.436 190.000,256.730 190.540,257.200 191.200 M261.200 191.400 C 261.946 192.170,262.647 192.800,262.757 192.800 C 262.867 192.800,262.346 192.170,261.600 191.400 C 260.854 190.630,260.153 190.000,260.043 190.000 C 259.933 190.000,260.454 190.630,261.200 191.400 M276.778 191.500 L 275.400 193.000 276.900 191.622 C 278.296 190.338,278.584 190.000,278.278 190.000 C 278.212 190.000,277.537 190.675,276.778 191.500 M286.984 192.666 C 286.314 194.029,285.913 195.054,286.091 194.944 C 286.546 194.662,288.472 190.796,288.323 190.462 C 288.255 190.312,287.653 191.303,286.984 192.666 M111.628 190.600 C 111.628 190.820,111.886 191.450,112.200 192.000 C 112.514 192.550,112.772 192.820,112.772 192.600 C 112.772 192.380,112.514 191.750,112.200 191.200 C 111.886 190.650,111.628 190.380,111.628 190.600 M205.309 192.000 C 205.309 192.990,205.387 193.395,205.482 192.900 C 205.578 192.405,205.578 191.595,205.482 191.100 C 205.387 190.605,205.309 191.010,205.309 192.000 M115.730 192.809 C 114.591 193.904,113.764 194.800,113.891 194.800 C 114.018 194.800,115.074 193.900,116.237 192.800 C 117.400 191.700,118.228 190.804,118.076 190.809 C 117.924 190.813,116.868 191.713,115.730 192.809 M245.600 192.147 C 245.600 192.580,247.588 196.400,247.813 196.400 C 247.923 196.400,247.539 195.455,246.959 194.300 C 245.843 192.079,245.600 191.694,245.600 192.147 M294.865 194.217 C 294.195 195.688,294.323 196.002,295.047 194.665 C 295.386 194.040,295.588 193.454,295.496 193.363 C 295.405 193.271,295.121 193.656,294.865 194.217 M139.431 194.768 C 138.815 195.410,138.408 196.175,138.524 196.468 C 138.690 196.883,138.744 196.873,138.768 196.422 C 138.786 196.104,139.284 195.339,139.875 194.722 C 140.466 194.105,140.860 193.600,140.750 193.600 C 140.640 193.600,140.046 194.126,139.431 194.768 M104.800 194.149 C 104.800 194.581,106.389 197.600,106.616 197.600 C 106.726 197.600,106.430 196.835,105.959 195.900 C 105.032 194.061,104.800 193.711,104.800 194.149 M243.200 194.149 C 243.200 194.581,244.789 197.600,245.016 197.600 C 245.126 197.600,244.830 196.835,244.359 195.900 C 243.432 194.061,243.200 193.711,243.200 194.149 M129.900 194.682 C 130.395 194.778,131.205 194.778,131.700 194.682 C 132.195 194.587,131.790 194.509,130.800 194.509 C 129.810 194.509,129.405 194.587,129.900 194.682 M268.300 194.682 C 268.795 194.778,269.605 194.778,270.100 194.682 C 270.595 194.587,270.190 194.509,269.200 194.509 C 268.210 194.509,267.805 194.587,268.300 194.682 M290.439 196.224 C 289.977 197.007,289.780 197.536,290.002 197.399 C 290.436 197.131,291.734 194.800,291.450 194.800 C 291.356 194.800,290.901 195.441,290.439 196.224 M284.796 196.205 C 284.414 196.665,284.163 196.701,283.747 196.356 C 283.446 196.106,283.200 195.992,283.200 196.102 C 283.200 196.929,284.350 197.119,285.001 196.399 C 285.399 195.959,285.628 195.600,285.511 195.600 C 285.394 195.600,285.072 195.872,284.796 196.205 M150.799 198.100 C 150.210 198.904,150.113 199.184,150.545 198.833 C 151.201 198.300,152.193 196.800,151.889 196.800 C 151.813 196.800,151.322 197.385,150.799 198.100 M263.700 197.076 C 264.085 197.176,264.715 197.176,265.100 197.076 C 265.485 196.975,265.170 196.893,264.400 196.893 C 263.630 196.893,263.315 196.975,263.700 197.076 M292.585 198.500 C 291.968 199.435,291.720 199.989,292.032 199.731 C 292.633 199.234,294.164 196.800,293.876 196.800 C 293.783 196.800,293.202 197.565,292.585 198.500 M126.934 200.400 C 126.934 202.050,127.005 202.725,127.091 201.900 C 127.178 201.075,127.178 199.725,127.091 198.900 C 127.005 198.075,126.934 198.750,126.934 200.400 M134.460 200.276 C 134.427 201.858,134.535 203.236,134.700 203.339 C 134.865 203.441,134.949 202.597,134.886 201.462 C 134.682 197.784,134.521 197.337,134.460 200.276 M250.008 199.463 C 250.705 200.377,252.023 201.695,252.937 202.392 L 254.600 203.658 253.069 202.260 C 252.227 201.491,250.909 200.173,250.140 199.331 L 248.742 197.800 250.008 199.463 M287.574 200.100 C 286.610 201.255,286.139 201.947,286.526 201.638 C 287.304 201.018,289.768 198.000,289.496 198.000 C 289.402 198.000,288.537 198.945,287.574 200.100 M148.575 200.900 L 147.400 202.200 148.700 201.025 C 149.912 199.930,150.184 199.600,149.875 199.600 C 149.806 199.600,149.221 200.185,148.575 200.900 M110.800 203.000 C 112.217 204.430,113.467 205.600,113.577 205.600 C 113.687 205.600,112.617 204.430,111.200 203.000 C 109.783 201.570,108.533 200.400,108.423 200.400 C 108.313 200.400,109.383 201.570,110.800 203.000 M151.578 201.900 L 150.200 203.400 151.700 202.022 C 153.096 200.738,153.384 200.400,153.078 200.400 C 153.012 200.400,152.337 201.075,151.578 201.900 M249.200 203.000 C 250.617 204.430,251.867 205.600,251.977 205.600 C 252.087 205.600,251.017 204.430,249.600 203.000 C 248.183 201.570,246.933 200.400,246.823 200.400 C 246.713 200.400,247.783 201.570,249.200 203.000 M145.358 203.331 C 144.455 204.029,143.375 204.832,142.958 205.115 C 142.541 205.398,142.964 205.230,143.899 204.742 C 144.833 204.253,145.990 203.437,146.469 202.927 C 147.626 201.695,147.339 201.800,145.358 203.331 M283.800 203.450 C 283.081 204.062,282.934 204.305,283.433 204.057 C 284.166 203.693,285.541 202.376,285.149 202.414 C 285.067 202.422,284.460 202.888,283.800 203.450 M101.514 203.404 C 101.741 203.847,102.348 204.566,102.863 205.002 C 103.767 205.766,103.765 205.752,102.806 204.597 C 101.213 202.679,101.079 202.555,101.514 203.404 M297.617 204.063 L 296.683 205.325 297.675 204.577 C 298.220 204.166,298.667 203.598,298.667 203.315 C 298.667 202.630,298.686 202.616,297.617 204.063 M287.375 204.500 L 286.200 205.800 287.500 204.625 C 288.215 203.979,288.800 203.394,288.800 203.325 C 288.800 203.016,288.470 203.288,287.375 204.500 M351.510 225.228 L 351.620 246.800 200.014 246.800 L 48.407 246.800 48.298 225.700 L 48.189 204.600 48.195 225.800 L 48.200 247.000 200.000 247.000 L 351.800 247.000 351.904 225.871 C 351.961 214.250,351.871 204.497,351.704 204.199 C 351.537 203.900,351.450 213.363,351.510 225.228 M256.000 204.598 C 256.000 204.867,260.049 206.884,260.229 206.705 C 260.311 206.623,259.393 206.073,258.189 205.482 C 256.985 204.892,256.000 204.494,256.000 204.598 M285.343 206.017 C 285.114 206.246,283.593 207.141,281.963 208.006 C 278.543 209.822,278.503 210.165,281.913 208.444 C 284.007 207.387,286.509 205.645,285.980 205.613 C 285.859 205.606,285.572 205.788,285.343 206.017 M104.600 207.163 C 105.817 208.493,109.600 211.796,109.600 211.529 C 109.600 211.448,108.205 210.138,106.500 208.617 C 104.795 207.096,103.940 206.442,104.600 207.163 M294.000 208.200 C 293.028 209.190,292.323 210.000,292.433 210.000 C 292.543 210.000,293.428 209.190,294.400 208.200 C 295.372 207.210,296.077 206.400,295.967 206.400 C 295.857 206.400,294.972 207.210,294.000 208.200 M124.200 207.600 C 124.640 207.789,125.360 207.938,125.800 207.932 C 126.443 207.923,126.404 207.857,125.600 207.600 C 124.232 207.162,123.181 207.162,124.200 207.600 M254.800 207.398 C 254.800 207.667,258.849 209.684,259.029 209.505 C 259.111 209.423,258.193 208.873,256.989 208.282 C 255.785 207.692,254.800 207.294,254.800 207.398 M274.400 207.600 C 273.596 207.857,273.557 207.923,274.200 207.932 C 274.640 207.938,275.360 207.789,275.800 207.600 C 276.819 207.162,275.768 207.162,274.400 207.600 M127.700 208.287 C 128.305 208.378,129.295 208.378,129.900 208.287 C 130.505 208.195,130.010 208.120,128.800 208.120 C 127.590 208.120,127.095 208.195,127.700 208.287 M132.105 208.287 C 132.714 208.379,133.614 208.377,134.105 208.282 C 134.597 208.187,134.100 208.111,133.000 208.114 C 131.900 208.117,131.497 208.195,132.105 208.287 M267.513 208.295 C 268.676 208.376,270.476 208.376,271.513 208.293 C 272.551 208.211,271.600 208.145,269.400 208.146 C 267.200 208.147,266.351 208.214,267.513 208.295 M119.200 209.000 C 119.750 209.314,120.380 209.572,120.600 209.572 C 120.820 209.572,120.550 209.314,120.000 209.000 C 119.450 208.686,118.820 208.428,118.600 208.428 C 118.380 208.428,118.650 208.686,119.200 209.000 M141.600 209.000 C 141.050 209.314,140.780 209.572,141.000 209.572 C 141.220 209.572,141.850 209.314,142.400 209.000 C 142.950 208.686,143.220 208.428,143.000 208.428 C 142.780 208.428,142.150 208.686,141.600 209.000 M261.400 210.400 C 261.840 210.589,262.560 210.738,263.000 210.732 C 263.643 210.723,263.604 210.657,262.800 210.400 C 261.432 209.962,260.381 209.962,261.400 210.400 M129.491 211.489 C 130.201 211.577,131.461 211.579,132.291 211.492 C 133.121 211.405,132.540 211.333,131.000 211.331 C 129.460 211.329,128.781 211.400,129.491 211.489 M267.891 211.489 C 268.601 211.577,269.861 211.579,270.691 211.492 C 271.521 211.405,270.940 211.333,269.400 211.331 C 267.860 211.329,267.181 211.400,267.891 211.489 M164.500 218.300 C 184.025 218.357,215.975 218.357,235.500 218.300 C 255.025 218.243,239.050 218.196,200.000 218.196 C 160.950 218.196,144.975 218.243,164.500 218.300 M198.000 266.000 C 197.014 266.986,196.972 268.442,197.900 269.539 C 200.262 272.330,204.280 269.090,202.177 266.089 C 201.363 264.927,199.121 264.879,198.000 266.000 M201.178 266.614 C 201.413 266.468,201.727 266.665,201.875 267.051 C 202.030 267.454,201.943 267.819,201.672 267.909 C 201.412 267.996,201.200 268.401,201.200 268.810 C 201.200 269.811,200.598 270.121,200.016 269.419 C 199.755 269.105,199.303 268.939,199.011 269.051 C 198.271 269.335,197.897 268.573,198.357 267.716 C 198.569 267.322,198.848 266.660,198.979 266.246 C 199.205 265.528,199.254 265.525,199.983 266.185 C 200.405 266.566,200.942 266.759,201.178 266.614 M118.000 285.206 C 117.578 285.482,117.815 285.523,118.800 285.342 C 120.525 285.025,120.851 284.798,119.567 284.806 C 119.035 284.809,118.330 284.989,118.000 285.206 M277.355 286.612 C 276.990 287.169,276.764 287.698,276.853 287.787 C 276.942 287.876,277.318 287.420,277.689 286.774 C 278.514 285.336,278.269 285.217,277.355 286.612 M283.455 286.600 C 284.380 288.179,284.400 288.203,284.400 287.711 C 284.400 287.479,284.029 286.864,283.576 286.344 L 282.753 285.400 283.455 286.600 M116.922 291.761 C 117.671 292.454,118.495 292.800,119.400 292.800 C 120.305 292.800,121.129 292.454,121.878 291.761 L 123.000 290.722 121.846 291.561 C 121.211 292.022,120.111 292.400,119.400 292.400 C 118.689 292.400,117.589 292.022,116.954 291.561 L 115.800 290.722 116.922 291.761 M278.122 291.761 C 278.871 292.454,279.695 292.800,280.600 292.800 C 281.505 292.800,282.329 292.454,283.078 291.761 L 284.200 290.722 283.046 291.561 C 282.411 292.022,281.311 292.400,280.600 292.400 C 279.889 292.400,278.789 292.022,278.154 291.561 L 277.000 290.722 278.122 291.761 M43.499 293.900 C 41.590 296.039,43.292 299.195,46.030 298.593 C 49.170 297.904,48.620 293.200,45.400 293.200 C 44.689 293.200,43.847 293.510,43.499 293.900 M352.889 293.823 C 351.881 294.529,351.673 296.608,352.500 297.718 C 353.954 299.669,357.333 298.515,357.333 296.067 C 357.333 293.618,354.921 292.399,352.889 293.823 M96.100 294.276 C 96.485 294.376,97.115 294.376,97.500 294.276 C 97.885 294.175,97.570 294.093,96.800 294.093 C 96.030 294.093,95.715 294.175,96.100 294.276 M302.500 294.276 C 302.885 294.376,303.515 294.376,303.900 294.276 C 304.285 294.175,303.970 294.093,303.200 294.093 C 302.430 294.093,302.115 294.175,302.500 294.276 M47.018 295.926 C 46.968 297.363,46.928 297.400,45.411 297.400 C 43.897 297.400,43.492 296.629,43.964 294.647 C 43.984 294.563,44.691 294.485,45.535 294.473 C 47.050 294.452,47.069 294.471,47.018 295.926 M356.185 295.911 C 356.101 297.298,356.024 297.373,354.632 297.421 C 353.011 297.478,352.495 297.049,353.185 296.218 C 353.502 295.836,353.511 295.592,353.213 295.408 C 352.446 294.934,353.159 294.495,354.731 294.473 C 356.259 294.452,356.273 294.466,356.185 295.911 M92.893 298.000 C 92.893 298.770,92.975 299.085,93.076 298.700 C 93.176 298.315,93.176 297.685,93.076 297.300 C 92.975 296.915,92.893 297.230,92.893 298.000 M306.893 298.000 C 306.893 298.770,306.975 299.085,307.076 298.700 C 307.176 298.315,307.176 297.685,307.076 297.300 C 306.975 296.915,306.893 297.230,306.893 298.000 M94.088 300.613 C 94.686 301.243,95.247 301.677,95.335 301.579 C 95.423 301.480,94.933 300.965,94.247 300.434 L 93.000 299.469 94.088 300.613 M43.700 307.076 C 44.085 307.176,44.715 307.176,45.100 307.076 C 45.485 306.975,45.170 306.893,44.400 306.893 C 43.630 306.893,43.315 306.975,43.700 307.076 M354.900 307.076 C 355.285 307.176,355.915 307.176,356.300 307.076 C 356.685 306.975,356.370 306.893,355.600 306.893 C 354.830 306.893,354.515 306.975,354.900 307.076 " stroke="none" fill="#97a1a1" fill-rule="evenodd"></path></g></svg>